<svg id="icon-price-lists" xmlns="http://www.w3.org/2000/svg" width="14.001" height="10.502" viewBox="0 0 14.001 10.502">
  <path id="list-check" d="M5,11.5a.5.5,0,0,1,.5-.5h9a.5.5,0,0,1,0,1h-9A.5.5,0,0,1,5,11.5Zm0-4A.5.5,0,0,1,5.5,7h9a.5.5,0,0,1,0,1h-9A.5.5,0,0,1,5,7.5Zm0-4A.5.5,0,0,1,5.5,3h9a.5.5,0,0,1,0,1h-9A.5.5,0,0,1,5,3.5ZM3.854,2.146a.5.5,0,0,1,0,.708l-1.5,1.5a.5.5,0,0,1-.708,0l-.5-.5a.5.5,0,0,1,.708-.708L2,3.293,3.146,2.146a.5.5,0,0,1,.708,0Zm0,4a.5.5,0,0,1,0,.708l-1.5,1.5a.5.5,0,0,1-.708,0l-.5-.5a.5.5,0,0,1,.708-.708L2,7.293,3.146,6.146a.5.5,0,0,1,.708,0Zm0,4a.5.5,0,0,1,0,.708l-1.5,1.5a.5.5,0,0,1-.708,0l-.5-.5a.5.5,0,0,1,.708-.708L2,11.293l1.146-1.147a.5.5,0,0,1,.708,0Z" transform="translate(-0.999 -1.999)" fill="#fff" fill-rule="evenodd"/>
</svg>
