<svg id="icon-download" xmlns="http://www.w3.org/2000/svg" width="16" height="13.9" viewBox="0 0 16 13.9">
  <path id="Trazado_244" data-name="Trazado 244" d="M.5,9.9a.5.5,0,0,1,.5.5v2.5a1,1,0,0,0,1,1H14a1,1,0,0,0,1-1V10.4a.5.5,0,0,1,1,0v2.5a2,2,0,0,1-2,2H2a2,2,0,0,1-2-2V10.4a.5.5,0,0,1,.5-.5Z" transform="translate(0 -1)" fill="#fff"/>
  <path id="Trazado_245" data-name="Trazado 245" d="M7.646,11.854a.5.5,0,0,0,.708,0l3-3a.5.5,0,1,0-.708-.708L8.5,10.293V1.5a.5.5,0,0,0-1,0v8.793L5.354,8.146a.5.5,0,1,0-.708.708Z" transform="translate(0 -1)" fill="#fff"/>
</svg>
