<svg id="icon-store" xmlns="http://www.w3.org/2000/svg" width="16" height="15" viewBox="0 0 16 15">
  <path id="shop-window" d="M2.97,1.35A1,1,0,0,1,3.73,1h8.54a1,1,0,0,1,.76.35l2.609,3.044A1.5,1.5,0,0,1,16,5.37v.255a2.375,2.375,0,0,1-4.25,1.458,2.375,2.375,0,0,1-3.75,0,2.375,2.375,0,0,1-3.75,0A2.375,2.375,0,0,1,0,5.625V5.37a1.5,1.5,0,0,1,.361-.976l2.61-3.045ZM4.75,5.625a1.375,1.375,0,0,0,2.75,0,.5.5,0,0,1,1,0,1.375,1.375,0,0,0,2.75,0,.5.5,0,0,1,1,0,1.375,1.375,0,0,0,2.75,0V5.37a.5.5,0,0,0-.12-.325L12.27,2H3.73L1.12,5.045A.5.5,0,0,0,1,5.37v.255a1.375,1.375,0,0,0,2.75,0,.5.5,0,0,1,1,0ZM1.5,8.5A.5.5,0,0,1,2,9v6H14V9a.5.5,0,0,1,1,0v6h.5a.5.5,0,0,1,0,1H.5a.5.5,0,0,1,0-1H1V9a.5.5,0,0,1,.5-.5Zm2,.5a.5.5,0,0,1,.5.5V13h8V9.5a.5.5,0,0,1,1,0V13a1,1,0,0,1-1,1H4a1,1,0,0,1-1-1V9.5A.5.5,0,0,1,3.5,9Z" transform="translate(0 -1)" fill="#fff"/>
</svg>
