<?xml version="1.0" encoding="utf-8"?>
<!-- Generator: Adobe Illustrator 23.0.0, SVG Export Plug-In . SVG Version: 6.00 Build 0)  -->
<svg version="1.1" id="Capa_1" xmlns="http://www.w3.org/2000/svg" xmlns:xlink="http://www.w3.org/1999/xlink" x="0px" y="0px"
	 viewBox="0 0 57.8 70" style="enable-background:new 0 0 57.8 70;" xml:space="preserve">
<style type="text/css">
	.st0{fill:#E2232A;}
</style>
<g id="Group-7" transform="translate(150.000000, 15.000000)">
	<g id="Group-5">
		<polygon id="Fill-25" points="-112.3,48.1 -113.4,49.2 -114.1,48.1 -112,46.3 -110.7,46.3 -110.7,54.8 -112.3,54.8 		"/>
		<path id="Fill-26" d="M-108.4,53.4c0.3,0.1,0.7,0.4,1.4,0.4c1.6,0,1.9-1.8,2-2.8l0,0c-0.3,0.5-0.7,0.9-1.6,0.9
			c-1.2,0-2.3-0.9-2.3-2.8c0-1.7,0.9-2.8,2.5-2.8c2.2,0,2.8,1.8,2.8,4c0,2.5-0.7,4.8-3.3,4.8c-0.8,0-1.3-0.2-1.6-0.3L-108.4,53.4z
			 M-106.3,50.6c0.7,0,1.1-0.6,1.1-1.6c0-1-0.3-1.6-1.1-1.6c-0.8,0-1.1,0.6-1.1,1.6C-107.3,49.9-107,50.6-106.3,50.6z"/>
		<path id="Fill-27" d="M-103,53.3c0.3,0.2,0.9,0.4,1.7,0.4c0.9,0,1.6-0.5,1.6-1.4c0-1-0.9-1.3-1.6-1.3c-0.2,0-0.4,0-0.6,0v-1.2h0.3
			c1,0,2-0.2,2-1.3c0-0.8-0.7-1.1-1.4-1.1c-0.5,0-1.1,0.2-1.6,0.4l-0.1-1.3c0.4-0.1,1.1-0.4,2-0.4c1.5,0,2.5,0.8,2.5,2.1
			c0,1.5-1.1,1.9-1.6,2v0c0.8,0.2,1.8,0.5,1.8,2.1c0,1.7-1.4,2.5-2.9,2.5c-0.8,0-1.5-0.2-2-0.4L-103,53.3z"/>
		<path id="Fill-28" d="M-97,53.4c0.3,0.1,0.7,0.4,1.4,0.4c1.6,0,1.9-1.8,2-2.8l0,0c-0.3,0.5-0.7,0.9-1.6,0.9
			c-1.2,0-2.3-0.9-2.3-2.8c0-1.7,0.9-2.8,2.5-2.8c2.2,0,2.8,1.8,2.8,4c0,2.5-0.7,4.8-3.3,4.8c-0.8,0-1.3-0.2-1.6-0.3L-97,53.4z
			 M-94.8,50.6c0.7,0,1.1-0.6,1.1-1.6c0-1-0.3-1.6-1.1-1.6c-0.8,0-1.1,0.6-1.1,1.6C-95.9,49.9-95.6,50.6-94.8,50.6z"/>
		<path id="Fill-29" d="M-92.2,43L-92.2,43l0-21.7l0,0L-128.3-15l0,0H-150v0h0V6.8l0,0l36.1,36.2l0,0L-92.2,43L-92.2,43z
			 M-95.8,39.5h-16.7l-34-34.1v-16.7h16.7l34,34.1L-95.8,39.5L-95.8,39.5z"/>
		<path id="Fill-24" class="st0" d="M-103.3,19.2h-4l-5.4,16.7h3.8l1.1-3.7h5.1l1.1,3.7h3.8L-103.3,19.2z M-107,29.2l1.8-6.3
			l1.7,6.3H-107z"/>
		<path id="Fill-31" class="st0" d="M-112.1,10.2c0,0-1.8-0.7-4.1-0.7c-4.6,0-5.8,2.8-5.8,4.8c0,1.9,1.1,3.4,3.2,4.2
			c2.1,0.9,3.5,1.4,3.5,2.6c0,1.3-1.2,1.9-2.5,1.9c-1.9,0-4-1.3-4-1.3v3.4c0,0,2.2,0.7,4.1,0.7c1.9,0,6.5-0.2,6.5-5.1
			c0-1.9-0.9-3.3-3.7-4.4c-2.2-0.9-2.9-1.7-2.9-2.5c0-1,1.3-1.7,2.2-1.7c1.3,0,3.6,1,3.6,1V10.2z"/>
		<path id="Fill-30" class="st0" d="M-129.2,12.4c-1.8,0-2.2-1.6-2.2-2.3V-0.1h-3.6V10c0,2.1,1.9,5.4,5.7,5.4c4.6,0,5.8-4.3,5.8-5.4
			V-0.1h-3.6l0,10.1C-127,10.9-127.4,12.4-129.2,12.4"/>
		<polygon id="Fill-21" class="st0" points="-142,6.2 -138.4,6.2 -138.4,-8 -142,-8 		"/>
	</g>
</g>
</svg>
