<svg id="logo-iusacobre" xmlns="http://www.w3.org/2000/svg" width="127.19" height="41.471" viewBox="0 0 127.19 41.471">
  <path id="Trazado_101" data-name="Trazado 101" d="M160.957,100.756v2.6a35.154,35.154,0,0,1,35.154,35.154h2.6V100.756Z" transform="translate(-71.525 -100.756)" fill="#ba0e0c"/>
  <g id="Grupo_911" data-name="Grupo 911" transform="translate(0 19.979)">
    <path id="Trazado_102" data-name="Trazado 102" d="M199.365,150.683v-.007a.505.505,0,0,0,.455-.513c0-.613-.566-.6-1.041-.6H198.3v2.209h.443v-.918h.142c.186,0,.244.063.306.228l.267.689h.493l-.354-.864C199.554,150.812,199.484,150.691,199.365,150.683Zm-.475-.176h-.145v-.594h.145c.221,0,.467.022.467.289S199.107,150.507,198.89,150.507Zm.114-2.159a2.326,2.326,0,1,0,2.327,2.326A2.327,2.327,0,0,0,199,148.348Zm0,4.125a1.8,1.8,0,1,1,1.8-1.8A1.8,1.8,0,0,1,199,152.473Z" transform="translate(-79.611 -131.509)" fill="#ad5514"/>
    <g id="Grupo_910" data-name="Grupo 910">
      <path id="Trazado_103" data-name="Trazado 103" d="M45.354,126.581H49.8v3.359H45.354Zm0,4.9H49.8V144.36H45.354Z" transform="translate(-45.354 -126.581)" fill="#ad5514"/>
      <path id="Trazado_104" data-name="Trazado 104" d="M66.242,145.794H62.095v-2.087a6.344,6.344,0,0,1-1.871,1.832,4.563,4.563,0,0,1-2.319.546,3.584,3.584,0,0,1-2.876-1.219,5.68,5.68,0,0,1-1.043-3.754v-8.2H58.45V140a2.819,2.819,0,0,0,.4,1.722,1.366,1.366,0,0,0,1.135.51,1.562,1.562,0,0,0,1.305-.68,4.26,4.26,0,0,0,.507-2.437v-6.2h4.441Z" transform="translate(-47.308 -128.014)" fill="#ad5514"/>
      <path id="Trazado_105" data-name="Trazado 105" d="M71.577,142.13l4.41-.46a2.441,2.441,0,0,0,.764,1.249,2.1,2.1,0,0,0,1.31.376,2.057,2.057,0,0,0,1.386-.424.975.975,0,0,0,.383-.787.908.908,0,0,0-.5-.824,8.444,8.444,0,0,0-1.911-.508,18.344,18.344,0,0,1-3.214-.83,3.462,3.462,0,0,1-1.517-1.29,3.6,3.6,0,0,1-.617-2.072,3.649,3.649,0,0,1,.667-2.193,3.968,3.968,0,0,1,1.834-1.375,8.84,8.84,0,0,1,3.132-.455,9.792,9.792,0,0,1,3.062.352,3.947,3.947,0,0,1,1.649,1.092,5.858,5.858,0,0,1,1.1,2l-4.213.461a1.609,1.609,0,0,0-.545-.91,2.068,2.068,0,0,0-1.266-.388,1.656,1.656,0,0,0-1.1.3.919.919,0,0,0-.343.72.773.773,0,0,0,.436.714,6.466,6.466,0,0,0,1.9.437,11.908,11.908,0,0,1,3.3.774,3.706,3.706,0,0,1,1.653,1.418,3.747,3.747,0,0,1,.573,2.023,4.29,4.29,0,0,1-.606,2.168,4.205,4.205,0,0,1-1.909,1.677,8.343,8.343,0,0,1-3.554.625,7.746,7.746,0,0,1-4.523-1.006A4.577,4.577,0,0,1,71.577,142.13Z" transform="translate(-51.29 -127.929)" fill="#ad5514"/>
      <path id="Trazado_106" data-name="Trazado 106" d="M93.411,137l-4.246-.5a5.63,5.63,0,0,1,.693-1.947,3.966,3.966,0,0,1,1.3-1.231,5.05,5.05,0,0,1,1.681-.583,12.2,12.2,0,0,1,2.314-.207,16.6,16.6,0,0,1,3.209.249,3.96,3.96,0,0,1,2.02,1.037,3.691,3.691,0,0,1,.894,1.546,6.14,6.14,0,0,1,.328,1.91v5.688a7.56,7.56,0,0,0,.1,1.424,6.727,6.727,0,0,0,.453,1.317H97.995a5.019,5.019,0,0,1-.327-.759,6.138,6.138,0,0,1-.153-.818,5.79,5.79,0,0,1-1.735,1.334,6.585,6.585,0,0,1-2.74.534,4.283,4.283,0,0,1-3.149-1.068,3.563,3.563,0,0,1-1.075-2.632,3.69,3.69,0,0,1,.775-2.414,5.033,5.033,0,0,1,2.86-1.406q2.5-.557,3.241-.782a13.743,13.743,0,0,0,1.572-.589,1.869,1.869,0,0,0-.337-1.273,1.583,1.583,0,0,0-1.191-.364,2.832,2.832,0,0,0-1.638.388A2.142,2.142,0,0,0,93.411,137Zm3.853,2.6a19.684,19.684,0,0,1-1.91.642,4.188,4.188,0,0,0-1.713.788,1.358,1.358,0,0,0-.006,1.861,1.445,1.445,0,0,0,1.075.371,2.557,2.557,0,0,0,1.381-.4,2.308,2.308,0,0,0,.907-.976,3.583,3.583,0,0,0,.267-1.5Z" transform="translate(-55.193 -127.929)" fill="#ad5514"/>
      <path id="Trazado_107" data-name="Trazado 107" d="M116.561,140.664l4.223.533a6.884,6.884,0,0,1-1.146,2.541,5.4,5.4,0,0,1-2.035,1.668,7.3,7.3,0,0,1-3.149.594,10.562,10.562,0,0,1-3.074-.381,5.231,5.231,0,0,1-2.112-1.237,6.2,6.2,0,0,1-1.386-2,7.733,7.733,0,0,1-.5-3.054,7.853,7.853,0,0,1,.612-3.308,5.913,5.913,0,0,1,1.221-1.738,5.614,5.614,0,0,1,1.594-1.145,8.056,8.056,0,0,1,3.33-.594,7.074,7.074,0,0,1,4.328,1.129,5.97,5.97,0,0,1,2.091,3.3l-4.181.618a2.183,2.183,0,0,0-.716-1.243,2.356,2.356,0,0,0-3.175.46,4.294,4.294,0,0,0-.683,2.657,3.71,3.71,0,0,0,.678,2.41,2.135,2.135,0,0,0,1.724.823,2.208,2.208,0,0,0,1.468-.5A3,3,0,0,0,116.561,140.664Z" transform="translate(-59.396 -127.929)" fill="#ad5514"/>
      <path id="Trazado_108" data-name="Trazado 108" d="M125.917,139.305a6.82,6.82,0,0,1,1.79-4.858,7.186,7.186,0,0,1,10.1.333,6.955,6.955,0,0,1,1.429,4.451,6.845,6.845,0,0,1-1.773,4.869,7.278,7.278,0,0,1-9.426.322A6.635,6.635,0,0,1,125.917,139.305Zm4.454-.013A4.2,4.2,0,0,0,131,141.84a1.929,1.929,0,0,0,3.154.012,4.353,4.353,0,0,0,.617-2.609,4.1,4.1,0,0,0-.621-2.492,1.873,1.873,0,0,0-1.54-.818,1.937,1.937,0,0,0-1.6.83A4.156,4.156,0,0,0,130.371,139.292Z" transform="translate(-63.592 -127.929)" fill="#ad5514"/>
      <path id="Trazado_109" data-name="Trazado 109" d="M145.2,126.581h4.487v6.161a4.262,4.262,0,0,1,3.383-1.553,4.343,4.343,0,0,1,3.5,1.692,7.491,7.491,0,0,1,1.386,4.858,10.1,10.1,0,0,1-.633,3.716,5.159,5.159,0,0,1-1.752,2.4,4.189,4.189,0,0,1-2.483.794,4.236,4.236,0,0,1-2.14-.558,5.894,5.894,0,0,1-1.593-1.638v1.9H145.2Zm4.454,11.3a4.035,4.035,0,0,0,.562,2.407,1.712,1.712,0,0,0,1.424.747,1.609,1.609,0,0,0,1.336-.733,4.274,4.274,0,0,0,.541-2.468,3.794,3.794,0,0,0-.529-2.243,1.56,1.56,0,0,0-1.282-.716,1.784,1.784,0,0,0-1.48.746A3.691,3.691,0,0,0,149.656,137.884Z" transform="translate(-67.958 -126.581)" fill="#ad5514"/>
      <path id="Trazado_110" data-name="Trazado 110" d="M163.782,132.828h4.158v2.111a5.013,5.013,0,0,1,1.239-1.886,2.433,2.433,0,0,1,1.577-.516,4.343,4.343,0,0,1,2.151.68l-1.377,3.516a3.213,3.213,0,0,0-1.243-.363,1.5,1.5,0,0,0-1.354.8,8.919,8.919,0,0,0-.688,4.222v4.318h-4.463Z" transform="translate(-72.164 -127.929)" fill="#ad5514"/>
      <path id="Trazado_111" data-name="Trazado 111" d="M189,140.494h-8.907a3.427,3.427,0,0,0,.579,1.771,2.022,2.022,0,0,0,1.68.836,2.333,2.333,0,0,0,1.245-.364,3.08,3.08,0,0,0,.775-.813l4.377.449a6.665,6.665,0,0,1-2.424,2.782,8.044,8.044,0,0,1-4.071.844,7.614,7.614,0,0,1-3.624-.722,5.6,5.6,0,0,1-2.189-2.293,7.511,7.511,0,0,1-.867-3.692,6.881,6.881,0,0,1,1.741-4.887,6.249,6.249,0,0,1,4.809-1.868,7.834,7.834,0,0,1,3.929.837,5.4,5.4,0,0,1,2.194,2.426,9.707,9.707,0,0,1,.753,4.135Zm-4.519-2.365a3.515,3.515,0,0,0-.693-2.051,1.909,1.909,0,0,0-1.479-.617,1.951,1.951,0,0,0-1.692.934,3.668,3.668,0,0,0-.512,1.734Z" transform="translate(-74.833 -127.929)" fill="#ad5514"/>
    </g>
  </g>
</svg>
