<svg id="logo-iusasol" xmlns="http://www.w3.org/2000/svg" width="147.736" height="28.123" viewBox="0 0 147.736 28.123">
  <path id="Trazado_153" data-name="Trazado 153" d="M32.075,114.62a1.293,1.293,0,0,1,1.262-1.3,1.31,1.31,0,0,1,1.3,1.3v20.39a1.307,1.307,0,0,1-1.3,1.294,1.29,1.29,0,0,1-1.262-1.294Z" transform="translate(-32.075 -110.275)" fill="#868585"/>
  <path id="Trazado_154" data-name="Trazado 154" d="M44.554,126.66V114.62a1.281,1.281,0,1,1,2.561,0V126.5c0,4.89,2.619,7.642,6.922,7.642,4.179,0,6.834-2.526,6.834-7.479V114.62a1.279,1.279,0,1,1,2.558,0v11.848c0,6.6-3.789,10.032-9.456,10.032C48.372,136.5,44.554,133.07,44.554,126.66Z" transform="translate(-34.9 -110.275)" fill="#868585"/>
  <path id="Trazado_155" data-name="Trazado 155" d="M76.31,133.375a1.13,1.13,0,0,1-.488-.967,1.24,1.24,0,0,1,1.229-1.265,1.1,1.1,0,0,1,.772.292,10.32,10.32,0,0,0,7.159,2.686c3.043,0,5.052-1.615,5.052-3.849v-.067c0-2.105-1.136-3.3-5.895-4.3-5.212-1.133-7.606-2.821-7.606-6.539V119.3c0-3.563,3.143-6.186,7.447-6.186A11.552,11.552,0,0,1,91.2,115.35a1.318,1.318,0,0,1,.55,1.036,1.229,1.229,0,0,1-1.231,1.227,1.2,1.2,0,0,1-.741-.225,9.462,9.462,0,0,0-5.858-1.975c-2.944,0-4.823,1.618-4.823,3.657v.067c0,2.135,1.163,3.33,6.146,4.4,5.054,1.095,7.38,2.942,7.38,6.406v.067c0,3.881-3.234,6.407-7.735,6.407A13.228,13.228,0,0,1,76.31,133.375Z" transform="translate(-41.979 -110.228)" fill="#868585"/>
  <path id="Trazado_156" data-name="Trazado 156" d="M101.942,134.435l9.191-20.106a1.671,1.671,0,0,1,1.62-1.132h.128a1.631,1.631,0,0,1,1.584,1.132l9.2,20.071a1.724,1.724,0,0,1,.162.649,1.227,1.227,0,0,1-1.231,1.226,1.4,1.4,0,0,1-1.266-.938l-2.357-5.21H106.54l-2.367,5.275a1.28,1.28,0,0,1-1.229.873,1.157,1.157,0,0,1-1.164-1.164A1.441,1.441,0,0,1,101.942,134.435Zm16.023-6.636-5.212-11.594L107.541,127.8Z" transform="translate(-47.855 -110.247)" fill="#868585"/>
  <path id="Trazado_157" data-name="Trazado 157" d="M135.973,133.375a1.15,1.15,0,0,1-.49-.967,1.243,1.243,0,0,1,1.235-1.265,1.127,1.127,0,0,1,.776.292,10.3,10.3,0,0,0,7.155,2.686c3.046,0,5.047-1.615,5.047-3.849v-.067c0-2.105-1.134-3.3-5.893-4.3-5.208-1.133-7.6-2.821-7.6-6.539V119.3c0-3.563,3.139-6.186,7.439-6.186a11.563,11.563,0,0,1,7.221,2.236,1.32,1.32,0,0,1,.552,1.036,1.231,1.231,0,0,1-1.233,1.227,1.2,1.2,0,0,1-.741-.225,9.468,9.468,0,0,0-5.862-1.975c-2.946,0-4.823,1.618-4.823,3.657v.067c0,2.135,1.169,3.33,6.149,4.4,5.051,1.095,7.376,2.942,7.376,6.406v.067c0,3.881-3.234,6.407-7.732,6.407A13.229,13.229,0,0,1,135.973,133.375Z" transform="translate(-55.485 -110.228)" fill="#b8b8b7"/>
  <path id="Trazado_158" data-name="Trazado 158" d="M203.04,114.62a1.278,1.278,0,1,1,2.555,0v19.159h11.75a1.188,1.188,0,0,1,1.169,1.2,1.159,1.159,0,0,1-1.169,1.163h-13.04a1.291,1.291,0,0,1-1.266-1.294Z" transform="translate(-70.779 -110.275)" fill="#b8b8b7"/>
  <g id="Grupo_925" data-name="Grupo 925" transform="translate(124.241)">
    <path id="Trazado_159" data-name="Trazado 159" d="M197.3,111.7a2.313,2.313,0,1,1-2.311-2.314A2.277,2.277,0,0,1,197.3,111.7Zm-4.262,0a1.953,1.953,0,1,0,1.951-1.985A1.933,1.933,0,0,0,193.036,111.7Zm1.444,1.331h-.329v-2.668h1.023c.6,0,.87.259.87.738a.721.721,0,0,1-.675.749l.8,1.181h-.387l-.753-1.181h-.552Zm.436-1.461c.4,0,.8-.019.8-.47,0-.371-.315-.46-.634-.46h-.6v.929Z" transform="translate(-192.672 -109.383)" fill="#b8b8b7"/>
  </g>
  <path id="Trazado_160" data-name="Trazado 160" d="M188.672,118.985a11.662,11.662,0,0,1,1.505,13.084,11.648,11.648,0,0,0-8.791-19.291,11.257,11.257,0,0,0-1.513.1A11.648,11.648,0,0,1,188.672,118.985Z" transform="translate(-65.534 -110.152)" fill="#e32213"/>
  <path id="Trazado_161" data-name="Trazado 161" d="M167.235,118.985a11.644,11.644,0,0,1,8.788-6.108,11.1,11.1,0,0,0-1.507-.1,11.646,11.646,0,0,0-8.791,19.291,11.654,11.654,0,0,1,1.509-13.084Z" transform="translate(-61.684 -110.152)" fill="#29b7c8"/>
  <path id="Trazado_162" data-name="Trazado 162" d="M168.514,119.013a11.648,11.648,0,0,1,17.587,0,11.648,11.648,0,0,0-8.8-6.108A11.644,11.644,0,0,0,168.514,119.013Z" transform="translate(-62.962 -110.18)" fill="#b01f09"/>
  <path id="Trazado_163" data-name="Trazado 163" d="M178.374,141.719a12.226,12.226,0,0,1-1.513-.1,12.05,12.05,0,0,1-1.507.1,11.624,11.624,0,0,1-8.791-4.005,11.652,11.652,0,0,0,20.6,0A11.613,11.613,0,0,1,178.374,141.719Z" transform="translate(-62.521 -115.797)" fill="#fcc500"/>
  <path id="Trazado_164" data-name="Trazado 164" d="M188.672,120.8a11.666,11.666,0,0,1-8.8,16.994,12.226,12.226,0,0,0,1.513.1,11.613,11.613,0,0,0,8.791-4.005,11.662,11.662,0,0,0-1.505-13.084Z" transform="translate(-65.534 -111.968)" fill="#f8b121"/>
  <path id="Trazado_165" data-name="Trazado 165" d="M174.959,137.89a12.05,12.05,0,0,0,1.507-.1,11.652,11.652,0,0,1-8.788-16.994,11.654,11.654,0,0,0-1.509,13.084A11.624,11.624,0,0,0,174.959,137.89Z" transform="translate(-62.126 -111.968)" fill="#008a9c"/>
  <path id="Trazado_166" data-name="Trazado 166" d="M185.706,119.628a11.648,11.648,0,0,0-17.587,0,11.652,11.652,0,0,0,8.788,16.994,11.666,11.666,0,0,0,8.8-16.994Zm-8.771,15.644a9.631,9.631,0,1,1,9.633-9.628A9.629,9.629,0,0,1,176.935,135.272Z" transform="translate(-62.568 -110.795)" fill="#abcb58"/>
</svg>
