<svg id="mailing-password" xmlns="http://www.w3.org/2000/svg" xmlns:xlink="http://www.w3.org/1999/xlink" width="249.465" height="250.064" viewBox="0 0 249.465 250.064">
  <defs>
    <linearGradient id="linear-gradient" x1="0.147" y1="1.333" x2="0.15" y2="1.333" gradientUnits="objectBoundingBox">
      <stop offset="0" stop-color="#fff"/>
      <stop offset="0.599" stop-color="#aaa"/>
      <stop offset="1" stop-color="#e6e6e6"/>
    </linearGradient>
    <linearGradient id="linear-gradient-2" x1="0.078" y1="1.254" x2="0.08" y2="1.254" gradientUnits="objectBoundingBox">
      <stop offset="0" stop-color="#fff"/>
      <stop offset="0.602" stop-color="#90908f"/>
      <stop offset="1" stop-color="#ececec"/>
    </linearGradient>
    <clipPath id="clip-path">
      <rect id="Rect치ngulo_1932" data-name="Rect치ngulo 1932" width="249.465" height="250.064" fill="none"/>
    </clipPath>
    <clipPath id="clip-path-2">
      <path id="Trazado_1212" data-name="Trazado 1212" d="M94.831,112.993,80.23,151.63,247.82,7.806Z" transform="translate(-80.23 -7.806)" fill="none"/>
    </clipPath>
    <clipPath id="clip-path-3">
      <path id="Trazado_1214" data-name="Trazado 1214" d="M0,61.577,59.853,96.133,242.043,7.806Z" transform="translate(0 -7.806)" fill="url(#linear-gradient)"/>
    </clipPath>
    <clipPath id="clip-path-4">
      <path id="Trazado_1216" data-name="Trazado 1216" d="M248.953,7.806,95.965,112.993l59.852,34.556Z" transform="translate(-95.965 -7.806)" fill="url(#linear-gradient-2)"/>
    </clipPath>
    <clipPath id="clip-path-5">
      <path id="Trazado_1218" data-name="Trazado 1218" d="M93.7,112.993,246.687,7.806,64.5,96.133l14.6,55.5Z" transform="translate(-64.497 -7.806)" fill="none"/>
    </clipPath>
    <linearGradient id="linear-gradient-5" x1="0.078" y1="1.284" x2="0.081" y2="1.284" gradientUnits="objectBoundingBox">
      <stop offset="0" stop-color="#a4a3a3"/>
      <stop offset="0.409" stop-color="#7a7979"/>
      <stop offset="0.791" stop-color="#595958"/>
      <stop offset="1" stop-color="#4d4d4c"/>
    </linearGradient>
    <clipPath id="clip-path-7">
      <rect id="Rect치ngulo_1930" data-name="Rect치ngulo 1930" width="164.475" height="94.96" fill="none"/>
    </clipPath>
  </defs>
  <g id="Grupo_1670" data-name="Grupo 1670" clip-path="url(#clip-path)">
    <path id="Trazado_1098" data-name="Trazado 1098" d="M80.231,151.63,247.819,7.805,94.832,112.993Z" transform="translate(-5.777 -0.562)" fill="#5c5659"/>
    <path id="Trazado_1099" data-name="Trazado 1099" d="M94.831,112.993,80.23,151.63,247.819,7.805Z" transform="translate(-5.777 -0.562)" fill="#5c5659"/>
    <g id="Grupo_1658" data-name="Grupo 1658" transform="translate(74.453 7.244)">
      <g id="Grupo_1657" data-name="Grupo 1657" clip-path="url(#clip-path-2)">
        <path id="Trazado_1100" data-name="Trazado 1100" d="M78.793,132.474V59.754H73.147C84.606,37.4,101.186,17.274,121.675.371V6.342H248.238V152.022H78.793Z" transform="translate(-79.72 -7.271)" fill="#5c5659"/>
        <path id="Trazado_1101" data-name="Trazado 1101" d="M78.916,132.552V60.388H74.863c11.372-22.18,27.825-42.155,48.157-58.931V6.42H248.361V152.1H78.916Z" transform="translate(-79.844 -7.349)" fill="#5c5659"/>
        <path id="Trazado_1102" data-name="Trazado 1102" d="M79.04,132.631V61.021H76.58c11.284-22.009,27.611-41.83,47.787-58.477V6.5H248.485V152.179H79.04Z" transform="translate(-79.967 -7.427)" fill="#5c5659"/>
        <path id="Trazado_1103" data-name="Trazado 1103" d="M79.164,132.709V61.655H78.3c11.2-21.839,27.4-41.507,47.417-58.024V6.576h122.9V152.257H79.164Z" transform="translate(-80.091 -7.505)" fill="#5c5659"/>
        <path id="Trazado_1104" data-name="Trazado 1104" d="M78.982,132.787V70.513H75.777q1.846-4.161,3.93-8.225C90.816,40.619,106.89,21.105,126.754,4.717V6.655H248.427V152.335H78.982Z" transform="translate(-79.909 -7.584)" fill="#5c5659"/>
        <path id="Trazado_1105" data-name="Trazado 1105" d="M78.843,132.865V79.43H73.836a159.428,159.428,0,0,1,7.325-16.509c11.021-21.5,26.968-40.858,46.675-57.117v.929H248.287V152.413H78.843Z" transform="translate(-79.77 -7.662)" fill="#5c5659"/>
        <path id="Trazado_1106" data-name="Trazado 1106" d="M78.971,132.486V79.475H75.615A158.35,158.35,0,0,1,82.881,63.1c10.934-21.327,26.755-40.534,46.305-56.663q3.665-3.025,7.5-5.9V6.353H248.415V152.034H78.971Z" transform="translate(-79.898 -7.282)" fill="#5c5659"/>
        <path id="Trazado_1107" data-name="Trazado 1107" d="M79.1,132.567V79.981h-1.7A157.179,157.179,0,0,1,84.6,63.733c10.846-21.156,26.541-40.209,45.935-56.211q3.636-3,7.444-5.855V6.435H248.543V152.116H79.1Z" transform="translate(-80.026 -7.364)" fill="#5c5659"/>
        <path id="Trazado_1108" data-name="Trazado 1108" d="M78.82,132.649V97.3H73.528A152.764,152.764,0,0,1,85.916,64.371C96.675,43.384,112.243,24.485,131.48,8.613q3.607-2.976,7.384-5.808V6.517h109.4V152.2H78.82Z" transform="translate(-79.747 -7.446)" fill="#5c5659"/>
        <path id="Trazado_1109" data-name="Trazado 1109" d="M78.952,132.731V97.667h-3.6A151.513,151.513,0,0,1,87.641,65.008c10.671-20.816,26.113-39.561,45.193-55.3q3.577-2.952,7.324-5.761V6.6H248.4V152.28H78.952Z" transform="translate(-79.879 -7.528)" fill="#5c5659"/>
        <path id="Trazado_1110" data-name="Trazado 1110" d="M72.6,132.813c0-47.652,23.411-90.791,61.26-122.019q3.548-2.927,7.264-5.714v1.6H248.2V152.361H78.753V132.813Z" transform="translate(-79.68 -7.61)" fill="#5c5659"/>
        <path id="Trazado_1111" data-name="Trazado 1111" d="M74.461,132.478c0-47.257,23.217-90.042,60.754-121.011q7.038-5.806,14.73-11.045V6.345h98.387V152.026H78.888V132.478Z" transform="translate(-79.815 -7.274)" fill="#5c5659"/>
        <path id="Trazado_1112" data-name="Trazado 1112" d="M76.323,132.563c0-46.864,23.024-89.291,60.247-120Q143.55,6.8,151.178,1.608V6.431h97.287V152.111H79.021V132.563Z" transform="translate(-79.949 -7.36)" fill="#5c5659"/>
        <path id="Trazado_1113" data-name="Trazado 1113" d="M78.186,132.648c0-46.47,22.83-88.54,59.741-118.994q6.921-5.71,14.485-10.861V6.516H248.6V152.2H80.537v6.079q-.774-4.177-1.3-8.422a140.654,140.654,0,0,1-1.053-17.206" transform="translate(-80.083 -7.445)" fill="#5c5659"/>
        <path id="Trazado_1114" data-name="Trazado 1114" d="M80.049,132.734c0-46.076,22.637-87.79,59.235-117.985q6.863-5.661,14.362-10.769V6.6h95.089V152.282H82.379v5.862q-.767-4.143-1.286-8.35a139.589,139.589,0,0,1-1.044-17.06" transform="translate(-80.217 -7.53)" fill="#5c5659"/>
        <path id="Trazado_1115" data-name="Trazado 1115" d="M81.911,132.819c0-45.682,22.443-87.04,58.728-116.977q6.8-5.614,14.239-10.678V6.687h93.989V152.367H84.222v5.645q-.761-4.106-1.275-8.279a138.328,138.328,0,0,1-1.036-16.915" transform="translate(-80.351 -7.616)" fill="#5c5659"/>
        <path id="Trazado_1116" data-name="Trazado 1116" d="M83.774,132.9c0-45.288,22.25-86.29,58.222-115.969q6.744-5.564,14.116-10.585v.421H249V152.453H86.064v5.428q-.754-4.072-1.264-8.207A137.263,137.263,0,0,1,83.774,132.9" transform="translate(-80.485 -7.701)" fill="#5c5659"/>
        <path id="Trazado_1117" data-name="Trazado 1117" d="M85.637,132.616c0-44.895,22.057-85.539,57.716-114.96q6.686-5.516,13.994-10.493Q161,4.678,164.79,2.336V6.483h84.347V152.164H87.908v5.211q-.747-4.037-1.254-8.137a135.973,135.973,0,0,1-1.017-16.622" transform="translate(-80.619 -7.412)" fill="#5c5659"/>
        <path id="Trazado_1118" data-name="Trazado 1118" d="M87.5,132.7c0-44.5,21.863-84.789,57.21-113.951q6.627-5.468,13.871-10.4,3.618-2.464,7.379-4.785v3H249.27V152.252H89.749v4.994q-.741-4-1.242-8.065A134.725,134.725,0,0,1,87.5,132.7" transform="translate(-80.753 -7.501)" fill="#5c5659"/>
        <path id="Trazado_1119" data-name="Trazado 1119" d="M89.362,132.447c0-44.107,21.669-84.038,56.7-112.944A191.538,191.538,0,0,1,174.717,0V6.315h74.688V152H91.593v4.776q-.735-3.966-1.231-7.994a133.646,133.646,0,0,1-1-16.331" transform="translate(-80.888 -7.244)" fill="#5c5659"/>
        <path id="Trazado_1120" data-name="Trazado 1120" d="M91.225,132.539c0-43.713,21.476-83.289,56.2-111.935a189.752,189.752,0,0,1,28.4-19.329V6.407h73.721V152.087H93.435v4.559q-.728-3.931-1.22-7.922a132.579,132.579,0,0,1-.99-16.185" transform="translate(-81.022 -7.336)" fill="#5c5659"/>
        <path id="Trazado_1121" data-name="Trazado 1121" d="M93.087,132.631c0-43.32,21.282-82.538,55.691-110.926A188.05,188.05,0,0,1,176.918,2.549V6.5h72.754V152.179H95.278v4.342q-.721-3.895-1.209-7.851a131.133,131.133,0,0,1-.982-16.039" transform="translate(-81.156 -7.427)" fill="#5c5659"/>
        <path id="Trazado_1122" data-name="Trazado 1122" d="M94.95,132.723c0-42.925,21.089-81.787,55.184-109.918A186.491,186.491,0,0,1,178.019,3.823V6.59h71.789V152.271H97.121V156.4q-.714-3.86-1.2-7.779a130.055,130.055,0,0,1-.973-15.894" transform="translate(-81.29 -7.519)" fill="#5c5659"/>
        <path id="Trazado_1123" data-name="Trazado 1123" d="M96.813,132.814c0-42.532,20.895-81.037,54.678-108.91A184.724,184.724,0,0,1,179.12,5.1V6.682h70.822V152.363H98.964v3.908q-.709-3.824-1.187-7.708a128.806,128.806,0,0,1-.964-15.748" transform="translate(-81.424 -7.611)" fill="#5c5659"/>
        <path id="Trazado_1124" data-name="Trazado 1124" d="M98.675,132.906c0-42.138,20.7-80.287,54.172-107.9A183,183,0,0,1,180.22,6.372v.4h69.855V152.454H100.806v3.691q-.7-3.789-1.176-7.637a127.7,127.7,0,0,1-.955-15.6" transform="translate(-81.558 -7.703)" fill="#5c5659"/>
        <path id="Trazado_1125" data-name="Trazado 1125" d="M100.538,132.693c0-41.744,20.508-79.537,53.666-106.893A181.3,181.3,0,0,1,181.321,7.341q3.655-2.038,7.433-3.932V6.56H250.21V152.241H102.649v3.473q-.695-3.754-1.166-7.566a126.454,126.454,0,0,1-.946-15.456" transform="translate(-81.692 -7.489)" fill="#5c5659"/>
        <path id="Trazado_1126" data-name="Trazado 1126" d="M102.4,132.508c0-41.351,20.315-78.786,53.159-105.884A179.623,179.623,0,0,1,182.421,8.338q7.243-4.035,14.965-7.5V6.375h52.958V152.056H104.493v3.256q-.689-3.718-1.154-7.494a125.193,125.193,0,0,1-.937-15.31" transform="translate(-81.826 -7.304)" fill="#5c5659"/>
        <path id="Trazado_1127" data-name="Trazado 1127" d="M104.263,132.6c0-40.956,20.122-78.036,52.654-104.876a177.73,177.73,0,0,1,26.6-18.111q7.173-4,14.822-7.43V6.473h52.134V152.153H106.334v3.039q-.682-3.683-1.143-7.423a124.123,124.123,0,0,1-.928-15.164" transform="translate(-81.96 -7.402)" fill="#5c5659"/>
        <path id="Trazado_1128" data-name="Trazado 1128" d="M106.126,132.7c0-40.563,19.928-77.285,52.147-103.868A176.13,176.13,0,0,1,184.622,10.9q7.1-3.959,14.679-7.358V6.57h51.311V152.25H108.178v2.822q-.676-3.647-1.133-7.352a122.864,122.864,0,0,1-.919-15.019" transform="translate(-82.095 -7.499)" fill="#5c5659"/>
        <path id="Trazado_1129" data-name="Trazado 1129" d="M107.989,132.8c0-40.169,19.735-76.535,51.64-102.859a174.488,174.488,0,0,1,26.094-17.763q7.035-3.921,14.537-7.286V6.667h50.486V152.348H110.02v2.6q-.668-3.612-1.121-7.28a121.615,121.615,0,0,1-.91-14.873" transform="translate(-82.229 -7.596)" fill="#5c5659"/>
        <path id="Trazado_1130" data-name="Trazado 1130" d="M109.851,132.9c0-39.775,19.541-75.785,51.134-101.85a172.645,172.645,0,0,1,25.838-17.588q6.966-3.884,14.394-7.215v.522H250.88V152.445H111.863v2.388q-.663-3.577-1.111-7.209a120.536,120.536,0,0,1-.9-14.727" transform="translate(-82.363 -7.693)" fill="#5c5659"/>
        <path id="Trazado_1131" data-name="Trazado 1131" d="M111.714,132.528c0-39.381,19.348-75.034,50.628-100.843A178.923,178.923,0,0,1,217.286,1.123V6.4h33.729V152.076H113.705v2.171q-.656-3.541-1.1-7.137a119.288,119.288,0,0,1-.893-14.582" transform="translate(-82.497 -7.325)" fill="#5c5659"/>
        <path id="Trazado_1132" data-name="Trazado 1132" d="M113.577,132.63c0-38.988,19.154-74.284,50.122-99.834A177.116,177.116,0,0,1,218.094,2.539V6.5h33.055V152.178h-135.6v1.953q-.65-3.506-1.089-7.067a118.194,118.194,0,0,1-.883-14.435" transform="translate(-82.631 -7.427)" fill="#5c5659"/>
        <path id="Trazado_1133" data-name="Trazado 1133" d="M115.439,132.732c0-38.593,18.961-73.533,49.615-98.825A175.329,175.329,0,0,1,218.9,3.955V6.6h32.382V152.28H117.391v1.736q-.642-3.47-1.076-7a116.751,116.751,0,0,1-.875-14.289" transform="translate(-82.765 -7.529)" fill="#5c5659"/>
        <path id="Trazado_1134" data-name="Trazado 1134" d="M117.3,132.834c0-38.2,18.767-72.784,49.11-97.817A173.525,173.525,0,0,1,219.706,5.371V6.7h31.711V152.382H119.234V153.9q-.636-3.435-1.066-6.924a115.679,115.679,0,0,1-.866-14.144" transform="translate(-82.899 -7.631)" fill="#5c5659"/>
        <path id="Trazado_1135" data-name="Trazado 1135" d="M119.165,132.936c0-37.806,18.574-72.033,48.6-96.809a171.764,171.764,0,0,1,52.746-29.34V6.8h31.037V152.484H121.077v1.3q-.629-3.4-1.055-6.851a114.607,114.607,0,0,1-.857-14" transform="translate(-83.033 -7.733)" fill="#5c5659"/>
        <path id="Trazado_1136" data-name="Trazado 1136" d="M121.027,132.685c0-37.412,18.38-71.283,48.1-95.8A169.962,169.962,0,0,1,221.32,7.85q7.368-2.571,15.087-4.556V6.552h15.277V152.233H122.919v1.084q-.624-3.363-1.044-6.78a113.359,113.359,0,0,1-.848-13.852" transform="translate(-83.168 -7.481)" fill="#5c5659"/>
        <path id="Trazado_1137" data-name="Trazado 1137" d="M122.89,132.534c0-37.019,18.187-70.532,47.59-94.792A168.188,168.188,0,0,1,222.128,9.013a187.079,187.079,0,0,1,30.5-7.811l-.808,5.2V152.082H124.762v.867q-.615-3.328-1.033-6.708a112.1,112.1,0,0,1-.839-13.706" transform="translate(-83.302 -7.33)" fill="#5c5659"/>
        <path id="Trazado_1138" data-name="Trazado 1138" d="M124.753,132.642c0-36.624,17.993-69.782,47.084-93.783a166.371,166.371,0,0,1,51.1-28.424,185.156,185.156,0,0,1,30.176-7.728l-1.157,3.8V152.191H126.605v.65q-.61-3.292-1.023-6.637a111.027,111.027,0,0,1-.83-13.561" transform="translate(-83.436 -7.439)" fill="#5c5659"/>
        <path id="Trazado_1139" data-name="Trazado 1139" d="M126.615,132.751c0-36.231,17.8-69.032,46.578-92.775a164.59,164.59,0,0,1,50.548-28.118,183.15,183.15,0,0,1,29.851-7.645l-1.505,2.405V152.3H128.447v.432q-.6-3.257-1.011-6.566a109.762,109.762,0,0,1-.821-13.415" transform="translate(-83.57 -7.547)" fill="#5c5659"/>
        <path id="Trazado_1140" data-name="Trazado 1140" d="M128.478,132.859c0-35.837,17.606-68.281,46.071-91.767a162.825,162.825,0,0,1,50-27.812,181.191,181.191,0,0,1,29.526-7.562l-1.853,1.009V152.407H130.29v.215q-.6-3.222-1-6.494a108.519,108.519,0,0,1-.812-13.269" transform="translate(-83.704 -7.656)" fill="#5c5659"/>
        <path id="Trazado_1141" data-name="Trazado 1141" d="M130.341,132.968c0-35.443,17.413-67.531,45.566-90.758A161.023,161.023,0,0,1,225.356,14.7a179.174,179.174,0,0,1,29.2-7.479h-2.2V152.516H133.5v6.319a107.255,107.255,0,0,1-3.161-25.867" transform="translate(-83.838 -7.764)" fill="#5c5659"/>
        <path id="Trazado_1142" data-name="Trazado 1142" d="M132.2,133.076c0-35.049,17.219-66.78,45.059-89.749a159.212,159.212,0,0,1,48.9-27.2,177.31,177.31,0,0,1,28.877-7.4h-2.551v143.9H135.328v6.031a106.069,106.069,0,0,1-3.125-25.579" transform="translate(-83.972 -7.872)" fill="#5c5659"/>
        <path id="Trazado_1143" data-name="Trazado 1143" d="M134.066,133.184c0-34.655,17.026-66.031,44.553-88.741a157.427,157.427,0,0,1,48.35-26.9,175.208,175.208,0,0,1,28.553-7.313h-2.9v142.5H137.156v5.744a104.9,104.9,0,0,1-3.09-25.293" transform="translate(-84.106 -7.981)" fill="#5c5659"/>
        <path id="Trazado_1144" data-name="Trazado 1144" d="M135.929,133.293c0-34.262,16.832-65.28,44.046-87.733a155.672,155.672,0,0,1,47.8-26.59,173.189,173.189,0,0,1,28.229-7.229h-3.247v141.1H138.984V158.3a103.706,103.706,0,0,1-3.055-25" transform="translate(-84.241 -8.089)" fill="#5c5659"/>
        <path id="Trazado_1145" data-name="Trazado 1145" d="M137.791,133.4c0-33.868,16.639-64.529,43.54-86.724a153.86,153.86,0,0,1,47.253-26.285,171.23,171.23,0,0,1,27.9-7.147h-3.6v139.7H140.812v5.169a102.475,102.475,0,0,1-3.021-24.717" transform="translate(-84.375 -8.198)" fill="#5c5659"/>
        <path id="Trazado_1146" data-name="Trazado 1146" d="M139.654,133.51c0-33.474,16.445-63.779,43.034-85.716a152.076,152.076,0,0,1,46.7-25.978,169.21,169.21,0,0,1,27.58-7.063h-3.944V153.058H142.639v4.882a101.3,101.3,0,0,1-2.985-24.43" transform="translate(-84.509 -8.306)" fill="#5c5659"/>
        <path id="Trazado_1147" data-name="Trazado 1147" d="M141.517,133.618c0-33.08,16.252-63.029,42.527-84.708A150.29,150.29,0,0,1,230.2,23.237a167.3,167.3,0,0,1,27.255-6.98h-4.292V153.166H144.467v4.594a100.111,100.111,0,0,1-2.95-24.143" transform="translate(-84.643 -8.415)" fill="#5c5659"/>
        <path id="Trazado_1148" data-name="Trazado 1148" d="M143.379,133.726c0-32.687,16.058-62.279,42.021-83.7A148.491,148.491,0,0,1,231,24.66a165.246,165.246,0,0,1,26.93-6.9h-4.641V153.275h-107v4.307a98.924,98.924,0,0,1-2.915-23.855" transform="translate(-84.777 -8.523)" fill="#5c5659"/>
        <path id="Trazado_1149" data-name="Trazado 1149" d="M145.242,133.835c0-32.292,15.865-61.528,41.515-82.691a146.713,146.713,0,0,1,45.054-25.061,163.324,163.324,0,0,1,26.607-6.814h-4.989V153.383H148.122V157.4a97.692,97.692,0,0,1-2.88-23.567" transform="translate(-84.911 -8.631)" fill="#5c5659"/>
        <path id="Trazado_1150" data-name="Trazado 1150" d="M147.105,133.943c0-31.9,15.671-60.778,41.009-81.682a144.912,144.912,0,0,1,44.5-24.756A161.316,161.316,0,0,1,258.9,20.774h-5.337V153.491H149.949v3.732a96.522,96.522,0,0,1-2.844-23.281" transform="translate(-85.045 -8.74)" fill="#5c5659"/>
        <path id="Trazado_1151" data-name="Trazado 1151" d="M148.967,134.052c0-31.505,15.478-60.027,40.5-80.674a143.12,143.12,0,0,1,43.955-24.451,159.263,159.263,0,0,1,25.957-6.647H253.7V153.6H151.776v3.445a95.335,95.335,0,0,1-2.809-22.993" transform="translate(-85.179 -8.848)" fill="#5c5659"/>
        <path id="Trazado_1152" data-name="Trazado 1152" d="M150.83,134.16c0-31.111,15.284-59.278,40-79.666A141.335,141.335,0,0,1,234.232,30.35a157.317,157.317,0,0,1,25.633-6.565h-6.034V153.708H153.6v3.157a94.1,94.1,0,0,1-2.775-22.705" transform="translate(-85.313 -8.957)" fill="#5c5659"/>
        <path id="Trazado_1153" data-name="Trazado 1153" d="M152.693,134.268c0-30.718,15.091-58.527,39.49-78.657a139.55,139.55,0,0,1,42.856-23.839,155.215,155.215,0,0,1,25.308-6.481h-6.382V153.817H155.432v2.87a92.925,92.925,0,0,1-2.739-22.419" transform="translate(-85.448 -9.065)" fill="#5c5659"/>
        <path id="Trazado_1154" data-name="Trazado 1154" d="M154.555,134.472c0-30.323,14.9-57.776,38.983-77.648A137.769,137.769,0,0,1,235.846,33.29q5.972-2.084,12.228-3.692,3.126-.8,6.316-1.479H254.1v125.9H157.259V156.6a91.74,91.74,0,0,1-2.7-22.131" transform="translate(-85.582 -9.269)" fill="#5c5659"/>
        <path id="Trazado_1155" data-name="Trazado 1155" d="M156.418,134.579c0-29.93,14.7-57.026,38.478-76.64a135.983,135.983,0,0,1,41.757-23.228q5.894-2.056,12.07-3.644,3.086-.792,6.234-1.461h-.723V154.127H159.087v2.295a90.554,90.554,0,0,1-2.669-21.843" transform="translate(-85.716 -9.376)" fill="#5c5659"/>
        <path id="Trazado_1156" data-name="Trazado 1156" d="M158.281,134.686c0-29.536,14.511-56.276,37.971-75.632a134.2,134.2,0,0,1,41.208-22.922q5.817-2.03,11.912-3.6,3.044-.782,6.152-1.442h-1.155v123.14H160.915v2.008a89.378,89.378,0,0,1-2.634-21.556" transform="translate(-85.85 -9.483)" fill="#5c5659"/>
        <path id="Trazado_1157" data-name="Trazado 1157" d="M160.143,134.793c0-29.142,14.317-55.526,37.465-74.623a132.38,132.38,0,0,1,40.658-22.617q5.738-2,11.752-3.549,3-.771,6.07-1.422H254.5V154.342H162.741v1.72a88.192,88.192,0,0,1-2.6-21.269" transform="translate(-85.984 -9.59)" fill="#5c5659"/>
        <path id="Trazado_1158" data-name="Trazado 1158" d="M162.006,134.9c0-28.748,14.123-54.775,36.958-73.615a130.621,130.621,0,0,1,40.109-22.311q5.661-1.975,11.593-3.5,2.964-.761,5.988-1.4h-2.019V154.449H164.57v1.433a86.961,86.961,0,0,1-2.564-20.981" transform="translate(-86.118 -9.697)" fill="#5c5659"/>
        <path id="Trazado_1159" data-name="Trazado 1159" d="M163.869,135.008c0-28.355,13.93-54.025,36.453-72.606A128.794,128.794,0,0,1,239.881,40.4q5.583-1.947,11.434-3.452,2.923-.75,5.906-1.384H254.77v119H166.4V155.7a85.774,85.774,0,0,1-2.529-20.693" transform="translate(-86.252 -9.804)" fill="#5c5659"/>
        <path id="Trazado_1160" data-name="Trazado 1160" d="M165.731,135.115c0-27.961,13.737-53.274,35.946-71.6a127.028,127.028,0,0,1,39.01-21.7q5.505-1.921,11.276-3.4,2.881-.739,5.823-1.364H254.9V154.663H168.225v.858a84.6,84.6,0,0,1-2.493-20.407" transform="translate(-86.386 -9.912)" fill="#5c5659"/>
        <path id="Trazado_1161" data-name="Trazado 1161" d="M167.594,135.222c0-27.567,13.543-52.524,35.439-70.59a125.259,125.259,0,0,1,38.461-21.394q5.429-1.894,11.117-3.357,2.841-.729,5.741-1.346h-3.315V154.77H170.052v.571a83.418,83.418,0,0,1-2.458-20.119" transform="translate(-86.521 -10.019)" fill="#5c5659"/>
        <path id="Trazado_1162" data-name="Trazado 1162" d="M169.457,135.329c0-27.173,13.35-51.774,34.934-69.581A123.451,123.451,0,0,1,242.3,44.659q5.351-1.867,10.958-3.308,2.8-.72,5.66-1.326h-3.747V154.878H171.88v.283a82.232,82.232,0,0,1-2.423-19.831" transform="translate(-86.655 -10.126)" fill="#5c5659"/>
        <path id="Trazado_1163" data-name="Trazado 1163" d="M171.319,135.436c0-26.779,13.156-51.023,34.427-68.572a121.657,121.657,0,0,1,37.362-20.783q5.274-1.84,10.8-3.261,2.76-.709,5.578-1.307h-4.18V154.985H175.02v4.687q-.725-2.323-1.313-4.691a81.054,81.054,0,0,1-2.388-19.545" transform="translate(-86.789 -10.233)" fill="#5c5659"/>
        <path id="Trazado_1164" data-name="Trazado 1164" d="M173.182,135.544c0-26.386,12.963-50.273,33.921-67.565A119.892,119.892,0,0,1,243.915,47.5q5.2-1.812,10.641-3.213,2.719-.7,5.5-1.287h-4.611v112.09H176.828v4.331q-.714-2.29-1.294-4.622a79.867,79.867,0,0,1-2.352-19.257" transform="translate(-86.923 -10.34)" fill="#5c5659"/>
        <path id="Trazado_1165" data-name="Trazado 1165" d="M175.045,135.651c0-25.991,12.769-49.523,33.414-66.556a118.1,118.1,0,0,1,36.263-20.172q5.118-1.786,10.482-3.164,2.678-.688,5.414-1.269h-5.044V155.2H178.636v3.975q-.7-2.255-1.273-4.554a78.635,78.635,0,0,1-2.318-18.969" transform="translate(-87.057 -10.447)" fill="#5c5659"/>
        <path id="Trazado_1166" data-name="Trazado 1166" d="M176.907,135.855c0-25.6,12.576-48.773,32.909-65.547a116.278,116.278,0,0,1,35.713-19.867q5.04-1.758,10.323-3.117h-.144V155.4H180.445v3.618q-.693-2.222-1.255-4.485a77.446,77.446,0,0,1-2.283-18.681" transform="translate(-87.191 -10.651)" fill="#5c5659"/>
        <path id="Trazado_1167" data-name="Trazado 1167" d="M178.77,135.961c0-25.2,12.382-48.022,32.4-64.539a114.493,114.493,0,0,1,35.165-19.56q4.962-1.732,10.163-3.069h-.657V155.509h-73.59v3.262q-.682-2.187-1.235-4.415a76.272,76.272,0,0,1-2.248-18.395" transform="translate(-87.325 -10.757)" fill="#5c5659"/>
        <path id="Trazado_1168" data-name="Trazado 1168" d="M180.633,136.066c0-24.81,12.189-47.271,31.9-63.531a112.737,112.737,0,0,1,34.615-19.255q4.886-1.7,10-3.021h-1.171V155.615H184.061v2.906q-.671-2.153-1.216-4.347a75.087,75.087,0,0,1-2.212-18.107" transform="translate(-87.459 -10.863)" fill="#5c5659"/>
        <path id="Trazado_1169" data-name="Trazado 1169" d="M182.5,136.172c0-24.417,12-46.521,31.389-62.522A110.935,110.935,0,0,1,247.949,54.7q4.808-1.677,9.847-2.973H256.11V155.72H185.869v2.549q-.661-2.119-1.2-4.278a73.9,73.9,0,0,1-2.177-17.819" transform="translate(-87.593 -10.968)" fill="#5c5659"/>
        <path id="Trazado_1170" data-name="Trazado 1170" d="M184.358,136.278c0-24.023,11.8-45.771,30.883-61.514A109.141,109.141,0,0,1,248.757,56.12q4.73-1.651,9.687-2.925h-2.2V155.826H189.1v6.321a74.554,74.554,0,0,1-2.6-8.336,72.724,72.724,0,0,1-2.142-17.533" transform="translate(-87.728 -11.074)" fill="#5c5659"/>
        <path id="Trazado_1171" data-name="Trazado 1171" d="M186.221,136.383c0-23.629,11.608-45.021,30.377-60.505A107.339,107.339,0,0,1,249.564,57.54q4.653-1.623,9.529-2.877h-2.713V155.932h-65.5v5.9a73.186,73.186,0,0,1-2.555-8.2,71.492,71.492,0,0,1-2.108-17.245" transform="translate(-87.862 -11.18)" fill="#5c5659"/>
        <path id="Trazado_1172" data-name="Trazado 1172" d="M188.083,136.489c0-23.235,11.415-44.27,29.87-59.5A105.572,105.572,0,0,1,250.37,58.959q4.575-1.6,9.37-2.829h-3.228v99.907H192.668v5.472a71.835,71.835,0,0,1-2.513-8.063,70.305,70.305,0,0,1-2.072-16.957" transform="translate(-87.996 -11.285)" fill="#5c5659"/>
        <path id="Trazado_1173" data-name="Trazado 1173" d="M189.946,136.595c0-22.841,11.221-43.52,29.365-58.489a103.774,103.774,0,0,1,31.867-17.727q4.5-1.569,9.211-2.781h-3.743v98.545H194.453v5.048a70.621,70.621,0,0,1-2.47-7.927,69.121,69.121,0,0,1-2.037-16.67" transform="translate(-88.13 -11.391)" fill="#5c5659"/>
        <path id="Trazado_1174" data-name="Trazado 1174" d="M191.809,136.7c0-22.447,11.028-42.77,28.858-57.48A101.988,101.988,0,0,1,251.985,61.8q4.421-1.542,9.053-2.733h-4.256v97.183H196.238v4.624a69.5,69.5,0,0,1-2.428-7.79,67.949,67.949,0,0,1-2-16.383" transform="translate(-88.264 -11.497)" fill="#5c5659"/>
        <path id="Trazado_1175" data-name="Trazado 1175" d="M193.671,136.806c0-22.054,10.834-42.02,28.351-56.471a100.2,100.2,0,0,1,30.77-17.116q4.342-1.514,8.893-2.685h-4.77v95.82H198.022v4.2a68.484,68.484,0,0,1-2.385-7.653,66.757,66.757,0,0,1-1.966-16.1" transform="translate(-88.398 -11.603)" fill="#5c5659"/>
        <path id="Trazado_1176" data-name="Trazado 1176" d="M195.534,136.912c0-21.659,10.641-41.269,27.845-55.464A98.4,98.4,0,0,1,253.6,64.638q4.265-1.488,8.734-2.637h-5.284V156.46H199.808v3.777a67.2,67.2,0,0,1-2.343-7.518,65.571,65.571,0,0,1-1.931-15.808" transform="translate(-88.532 -11.708)" fill="#5c5659"/>
        <path id="Trazado_1177" data-name="Trazado 1177" d="M197.4,137.017c0-21.266,10.447-40.518,27.339-54.455a96.626,96.626,0,0,1,29.67-16.5q4.188-1.46,8.576-2.589h-5.8v93.1H201.593v3.353a65.839,65.839,0,0,1-2.3-7.38,64.355,64.355,0,0,1-1.9-15.521" transform="translate(-88.666 -11.814)" fill="#5c5659"/>
        <path id="Trazado_1178" data-name="Trazado 1178" d="M199.259,137.123c0-20.872,10.254-39.768,26.833-53.446a94.8,94.8,0,0,1,29.121-16.2q4.109-1.435,8.417-2.542h-6.312v91.734h-53.94V159.6a64.676,64.676,0,0,1-2.257-7.244,63.162,63.162,0,0,1-1.862-15.233" transform="translate(-88.8 -11.92)" fill="#5c5659"/>
        <path id="Trazado_1179" data-name="Trazado 1179" d="M201.122,137.319c0-20.478,10.06-39.018,26.326-52.438a93.027,93.027,0,0,1,28.571-15.892q2.016-.7,4.081-1.328h-2.649v89.206h-52.29v2.5a63.524,63.524,0,0,1-2.214-7.108,61.978,61.978,0,0,1-1.826-14.945" transform="translate(-88.935 -12.116)" fill="#5c5659"/>
        <path id="Trazado_1180" data-name="Trazado 1180" d="M202.985,137.423c0-20.085,9.867-38.268,25.821-51.43a91.226,91.226,0,0,1,28.021-15.587q1.978-.69,4-1.3h-3.243v87.867H206.948v2.081a62.363,62.363,0,0,1-2.172-6.971,60.793,60.793,0,0,1-1.791-14.658" transform="translate(-89.069 -12.22)" fill="#5c5659"/>
        <path id="Trazado_1181" data-name="Trazado 1181" d="M204.847,137.527c0-19.69,9.673-37.517,25.314-50.421a89.434,89.434,0,0,1,27.472-15.281q1.938-.677,3.925-1.277H257.72v86.527H208.732v1.656a60.989,60.989,0,0,1-2.13-6.834,59.614,59.614,0,0,1-1.756-14.371" transform="translate(-89.203 -12.324)" fill="#5c5659"/>
        <path id="Trazado_1182" data-name="Trazado 1182" d="M206.71,137.728c0-19.3,9.48-36.767,24.808-49.413A87.661,87.661,0,0,1,258.44,73.34h-.586v83.936H210.518v1.232a59.784,59.784,0,0,1-2.087-6.7,58.426,58.426,0,0,1-1.72-14.083" transform="translate(-89.337 -12.525)" fill="#5c5659"/>
        <path id="Trazado_1183" data-name="Trazado 1183" d="M208.573,137.83c0-18.9,9.286-36.016,24.3-48.4a85.868,85.868,0,0,1,26.374-14.67h-1.259v82.622H212.3v.808a58.435,58.435,0,0,1-2.044-6.561,57.2,57.2,0,0,1-1.686-13.8" transform="translate(-89.471 -12.627)" fill="#5c5659"/>
        <path id="Trazado_1184" data-name="Trazado 1184" d="M210.435,137.932c0-18.509,9.093-35.266,23.8-47.4a84.066,84.066,0,0,1,25.823-14.364h-1.932V157.48H214.088v.384a57.256,57.256,0,0,1-2-6.424,55.979,55.979,0,0,1-1.651-13.509" transform="translate(-89.605 -12.729)" fill="#5c5659"/>
        <path id="Trazado_1185" data-name="Trazado 1185" d="M212.3,138.034c0-18.115,8.9-34.516,23.289-46.388a82.3,82.3,0,0,1,25.274-14.058h-2.6v79.994H218.546v5.987a55.7,55.7,0,0,1-6.248-25.535" transform="translate(-89.739 -12.831)" fill="#5c5659"/>
        <path id="Trazado_1186" data-name="Trazado 1186" d="M214.161,138.136c0-17.722,8.706-33.765,22.782-45.379A80.506,80.506,0,0,1,261.669,79h-3.278v78.68H220.274v5.432a54.472,54.472,0,0,1-6.113-24.98" transform="translate(-89.874 -12.933)" fill="#5c5659"/>
        <path id="Trazado_1187" data-name="Trazado 1187" d="M216.023,138.238c0-17.328,8.513-33.015,22.277-44.37A78.685,78.685,0,0,1,262.475,80.42h-3.951v77.366H222v4.877a53.26,53.26,0,0,1-5.977-24.425" transform="translate(-90.008 -13.034)" fill="#5c5659"/>
        <path id="Trazado_1188" data-name="Trazado 1188" d="M217.886,138.34c0-16.934,8.319-32.265,21.77-43.362a76.935,76.935,0,0,1,23.626-13.141h-4.622v76.052H223.727v4.322a52.059,52.059,0,0,1-5.841-23.87" transform="translate(-90.142 -13.136)" fill="#5c5659"/>
        <path id="Trazado_1189" data-name="Trazado 1189" d="M219.749,138.442c0-16.54,8.126-31.515,21.264-42.354A75.128,75.128,0,0,1,264.09,83.252h-5.3V157.99H225.454v3.767a50.844,50.844,0,0,1-5.705-23.315" transform="translate(-90.276 -13.238)" fill="#5c5659"/>
        <path id="Trazado_1190" data-name="Trazado 1190" d="M221.611,138.544c0-16.146,7.932-30.764,20.757-41.345A73.342,73.342,0,0,1,264.9,84.668h-5.969v73.424H227.18V161.3a49.638,49.638,0,0,1-5.569-22.759" transform="translate(-90.41 -13.34)" fill="#5c5659"/>
        <path id="Trazado_1191" data-name="Trazado 1191" d="M223.474,138.832c0-15.753,7.739-30.014,20.251-40.337a68.449,68.449,0,0,1,10.233-6.966q2.759-1.537,5.7-2.857h-.6V158.38H228.907v2.656a48.428,48.428,0,0,1-5.433-22.2" transform="translate(-90.544 -13.629)" fill="#5c5659"/>
        <path id="Trazado_1192" data-name="Trazado 1192" d="M225.337,138.929c0-15.358,7.546-29.263,19.745-39.328a66.674,66.674,0,0,1,9.977-6.791q2.689-1.5,5.559-2.787H259.2v68.455H230.635v2.1a47.213,47.213,0,0,1-5.3-21.649" transform="translate(-90.678 -13.726)" fill="#5c5659"/>
        <path id="Trazado_1193" data-name="Trazado 1193" d="M227.2,139.027c0-14.965,7.353-28.513,19.238-38.32a65.006,65.006,0,0,1,9.722-6.618q2.621-1.462,5.416-2.714h-2.246v67.2H232.36v1.546a46.014,46.014,0,0,1-5.161-21.094" transform="translate(-90.812 -13.823)" fill="#5c5659"/>
        <path id="Trazado_1194" data-name="Trazado 1194" d="M229.062,139.124c0-14.571,7.159-27.763,18.733-37.312a63.306,63.306,0,0,1,9.466-6.443q2.552-1.423,5.273-2.643h-3.07v65.946H234.088v.991a44.789,44.789,0,0,1-5.026-20.539" transform="translate(-90.946 -13.921)" fill="#5c5659"/>
        <path id="Trazado_1195" data-name="Trazado 1195" d="M230.925,139.221c0-14.177,6.965-27.012,18.226-36.3a61.556,61.556,0,0,1,9.209-6.269q2.483-1.385,5.131-2.572H259.6v64.692H235.816v.436a43.574,43.574,0,0,1-4.891-19.984" transform="translate(-91.081 -14.018)" fill="#5c5659"/>
        <path id="Trazado_1196" data-name="Trazado 1196" d="M232.787,139.319c0-13.784,6.772-26.262,17.72-35.294a59.782,59.782,0,0,1,8.953-6.1q2.414-1.346,4.988-2.5h-4.717v63.438H240.088v4.244a46.686,46.686,0,0,1-2.547-4.363,42.371,42.371,0,0,1-4.754-19.429" transform="translate(-91.215 -14.115)" fill="#5c5659"/>
        <path id="Trazado_1197" data-name="Trazado 1197" d="M234.65,139.6c0-13.39,6.579-25.512,17.213-34.287a58.136,58.136,0,0,1,8.7-5.921h-.7v59.756H241.744v3.564a45.2,45.2,0,0,1-2.475-4.239A41.158,41.158,0,0,1,234.65,139.6" transform="translate(-91.349 -14.401)" fill="#5c5659"/>
        <path id="Trazado_1198" data-name="Trazado 1198" d="M236.513,139.7c0-13,6.385-24.762,16.708-33.278a56.391,56.391,0,0,1,8.442-5.747H260v58.573H243.4v2.884a44,44,0,0,1-2.4-4.114,39.955,39.955,0,0,1-4.482-18.319" transform="translate(-91.483 -14.493)" fill="#5c5659"/>
        <path id="Trazado_1199" data-name="Trazado 1199" d="M238.375,139.788c0-12.6,6.192-24.011,16.2-32.269a54.653,54.653,0,0,1,8.187-5.573h-2.629v57.39H247.822V165.3a43.737,43.737,0,0,1-5.1-7.752,38.744,38.744,0,0,1-4.347-17.764" transform="translate(-91.617 -14.584)" fill="#5c5659"/>
        <path id="Trazado_1200" data-name="Trazado 1200" d="M240.238,139.88c0-12.208,6-23.26,15.7-31.261a52.982,52.982,0,0,1,7.93-5.4h-3.594v56.208H249.39v5.17a42.366,42.366,0,0,1-4.941-7.509,37.53,37.53,0,0,1-4.211-17.209" transform="translate(-91.751 -14.676)" fill="#5c5659"/>
        <path id="Trazado_1201" data-name="Trazado 1201" d="M242.1,139.971c0-11.814,5.8-22.51,15.189-30.253a51.276,51.276,0,0,1,7.675-5.225H260.4V159.52h-9.446v4.373a41.062,41.062,0,0,1-4.781-7.268,36.321,36.321,0,0,1-4.075-16.653" transform="translate(-91.885 -14.768)" fill="#5c5659"/>
        <path id="Trazado_1202" data-name="Trazado 1202" d="M243.963,140.063c0-11.421,5.611-21.76,14.682-29.244a49.485,49.485,0,0,1,7.419-5.05h-5.528v53.842h-8.012v3.575a39.658,39.658,0,0,1-4.621-7.025,35.113,35.113,0,0,1-3.939-16.1" transform="translate(-92.019 -14.86)" fill="#5c5659"/>
        <path id="Trazado_1203" data-name="Trazado 1203" d="M245.826,140.155c0-11.026,5.418-21.01,14.176-28.236a47.955,47.955,0,0,1,7.162-4.876h-6.493V159.7h-6.579v2.777a38.272,38.272,0,0,1-4.462-6.783,33.889,33.889,0,0,1-3.8-15.543" transform="translate(-92.154 -14.951)" fill="#5c5659"/>
        <path id="Trazado_1204" data-name="Trazado 1204" d="M247.689,140.611c0-10.633,5.224-20.259,13.669-27.227h-.553V160.16H255.66v1.98a36.965,36.965,0,0,1-4.3-6.541,32.686,32.686,0,0,1-3.667-14.988" transform="translate(-92.288 -15.408)" fill="#5c5659"/>
        <path id="Trazado_1205" data-name="Trazado 1205" d="M249.551,140.69c0-10.24,5.031-19.509,13.164-26.219h-1.776v45.767h-3.712v1.183a35.532,35.532,0,0,1-4.143-6.3,31.475,31.475,0,0,1-3.532-14.433" transform="translate(-92.422 -15.486)" fill="#5c5659"/>
        <path id="Trazado_1206" data-name="Trazado 1206" d="M251.414,140.768c0-9.845,4.837-18.759,12.657-25.211h-3v44.759l3,5.663c-7.82-6.452-12.657-15.366-12.657-25.211" transform="translate(-92.556 -15.564)" fill="#5c5659"/>
        <path id="Trazado_1207" data-name="Trazado 1207" d="M253.277,140.846c0-9.452,4.644-18.009,12.151-24.2h-4.221v43.75l4.221,4.654c-7.508-6.193-12.151-14.75-12.151-24.2" transform="translate(-92.69 -15.643)" fill="#5c5659"/>
        <path id="Trazado_1208" data-name="Trazado 1208" d="M255.139,140.924c0-9.057,4.45-17.258,11.644-23.193h-5.443v42.742l5.443,3.645c-7.195-5.935-11.644-14.136-11.644-23.193" transform="translate(-92.824 -15.721)" fill="#5c5659"/>
        <path id="Trazado_1209" data-name="Trazado 1209" d="M257,141.363a26.642,26.642,0,0,1,2.988-12.212,30.119,30.119,0,0,1,3.507-5.329h-2.022V158.9H263.5a30.118,30.118,0,0,1-3.507-5.329A26.641,26.641,0,0,1,257,141.363" transform="translate(-92.958 -16.159)" fill="#5c5659"/>
        <path id="Trazado_1210" data-name="Trazado 1210" d="M258.865,141.819a25.416,25.416,0,0,1,2.853-11.657h-.108v23.315h.108a25.416,25.416,0,0,1-2.853-11.657" transform="translate(-93.092 -16.616)" fill="#5c5659"/>
        <path id="Trazado_1211" data-name="Trazado 1211" d="M260.728,141.863a24.227,24.227,0,0,1,2.715-11.1h-1.7v22.205h1.7a24.228,24.228,0,0,1-2.715-11.1" transform="translate(-93.227 -16.659)" fill="#5c5659"/>
      </g>
    </g>
    <g id="Grupo_1660" data-name="Grupo 1660" transform="translate(0 7.244)">
      <g id="Grupo_1659" data-name="Grupo 1659" clip-path="url(#clip-path-3)">
        <path id="Trazado_1213" data-name="Trazado 1213" d="M51.719,165.412-54.293,22.278l236.8-95.407L288.518,70.005Z" transform="translate(3.909 -1.978)" fill="url(#linear-gradient)"/>
      </g>
    </g>
    <g id="Grupo_1662" data-name="Grupo 1662" transform="translate(89.055 7.244)">
      <g id="Grupo_1661" data-name="Grupo 1661" clip-path="url(#clip-path-4)">
        <path id="Trazado_1215" data-name="Trazado 1215" d="M359.164,76.435,165.625-40.348-32.787,71.985,160.752,188.768Z" transform="translate(-86.694 -4.339)" fill="url(#linear-gradient-2)"/>
      </g>
    </g>
    <g id="Grupo_1664" data-name="Grupo 1664" transform="translate(59.853 7.244)">
      <g id="Grupo_1663" data-name="Grupo 1663" clip-path="url(#clip-path-5)">
        <path id="Trazado_1217" data-name="Trazado 1217" d="M84.156,185.821l-114.251-160,243.5-57.963,114.251,160Z" transform="translate(-57.686 -4.93)" fill="url(#linear-gradient-5)"/>
      </g>
    </g>
    <g id="Grupo_1669" data-name="Grupo 1669">
      <g id="Grupo_1668" data-name="Grupo 1668" clip-path="url(#clip-path)">
        <g id="Grupo_1667" data-name="Grupo 1667" transform="translate(38.784 155.104)" opacity="0.4">
          <g id="Grupo_1666" data-name="Grupo 1666">
            <g id="Grupo_1665" data-name="Grupo 1665" clip-path="url(#clip-path-7)">
              <path id="Trazado_1219" data-name="Trazado 1219" d="M206.268,167.139,41.793,203.678l38.863,22.437,1.81,1.045L104.19,225.6l10.476,20.154L142.98,262.1Z" transform="translate(-41.793 -167.139)" fill="#1d1d1b"/>
            </g>
          </g>
        </g>
      </g>
    </g>
  </g>
</svg>
