<svg id="mailing-register" xmlns="http://www.w3.org/2000/svg" xmlns:xlink="http://www.w3.org/1999/xlink" width="360.955" height="271.223" viewBox="0 0 360.955 271.223">
  <defs>
    <clipPath id="clip-path">
      <path id="Trazado_1288" data-name="Trazado 1288" d="M351.47,223.975a29.564,29.564,0,1,1-29.564-29.564A29.563,29.563,0,0,1,351.47,223.975Z" transform="translate(-292.341 -194.411)" fill="#cfd1d6"/>
    </clipPath>
    <clipPath id="clip-path-2">
      <path id="Trazado_1321" data-name="Trazado 1321" d="M289.063,104.853a24.435,24.435,0,1,1-24.436-24.435A24.435,24.435,0,0,1,289.063,104.853Z" transform="translate(-240.194 -80.418)" fill="#cfd1d6"/>
    </clipPath>
  </defs>
  <g id="Grupo_1726" data-name="Grupo 1726" transform="translate(-44)">
    <g id="Grupo_1703" data-name="Grupo 1703" transform="translate(44 73.257)">
      <g id="Grupo_1702" data-name="Grupo 1702">
        <path id="Rectángulo_1941" data-name="Rectángulo 1941" d="M13.977,0H135.012a13.977,13.977,0,0,1,13.977,13.977v136.77a13.976,13.976,0,0,1-13.976,13.976H13.977A13.977,13.977,0,0,1,0,150.745V13.977A13.977,13.977,0,0,1,13.977,0Z" transform="translate(1.668 2.09)" fill="#c0c2c8" style="mix-blend-mode: multiply;isolation: isolate"/>
        <rect id="Rectángulo_1942" data-name="Rectángulo 1942" width="148.99" height="164.724" rx="13.979" transform="translate(0 0)" fill="#fff"/>
        <path id="Trazado_1222" data-name="Trazado 1222" d="M198.226,143.807V135.48a16.661,16.661,0,0,0-16.658-16.661H65.895a16.661,16.661,0,0,0-16.66,16.661v8.327Z" transform="translate(-49.235 -118.819)" fill="#003b69"/>
        <path id="Trazado_1223" data-name="Trazado 1223" d="M149.364,135.567A1.366,1.366,0,0,1,148,136.932h-9.078a1.366,1.366,0,0,1-1.36-1.365v-9.079a1.359,1.359,0,0,1,1.36-1.356H148a1.359,1.359,0,0,1,1.362,1.356Z" transform="translate(-32.298 -117.608)" fill="#fff"/>
        <path id="Trazado_1224" data-name="Trazado 1224" d="M163.729,135.567a1.366,1.366,0,0,1-1.363,1.365H153.29a1.367,1.367,0,0,1-1.362-1.365v-9.079a1.36,1.36,0,0,1,1.362-1.356h9.075a1.359,1.359,0,0,1,1.363,1.356Z" transform="translate(-29.543 -117.608)" fill="#fff"/>
        <path id="Trazado_1225" data-name="Trazado 1225" d="M145.143,131.031a5.9,5.9,0,0,1-5.9,5.9H62.9a5.9,5.9,0,0,1-5.9-5.9h0a5.9,5.9,0,0,1,5.9-5.9h76.346a5.894,5.894,0,0,1,5.9,5.9Z" transform="translate(-47.746 -117.608)" fill="#fff"/>
        <g id="Grupo_1701" data-name="Grupo 1701" transform="translate(11.338 40.22)">
          <g id="Grupo_1700" data-name="Grupo 1700">
            <path id="Trazado_1226" data-name="Trazado 1226" d="M130.238,188.312A35.744,35.744,0,1,1,94.5,152.568,35.747,35.747,0,0,1,130.238,188.312Z" transform="translate(-58.749 -152.568)" fill="#cfd1d6"/>
          </g>
        </g>
        <rect id="Rectángulo_1943" data-name="Rectángulo 1943" width="47.995" height="9.079" transform="translate(88.734 42.863)" fill="#9f9fa6"/>
        <rect id="Rectángulo_1944" data-name="Rectángulo 1944" width="47.995" height="4.539" transform="translate(88.734 58.43)" fill="#cfd1d6"/>
        <rect id="Rectángulo_1945" data-name="Rectángulo 1945" width="47.995" height="4.538" transform="translate(88.734 67.724)" fill="#cfd1d6"/>
        <rect id="Rectángulo_1946" data-name="Rectángulo 1946" width="47.995" height="4.541" transform="translate(88.734 77.018)" fill="#cfd1d6"/>
        <rect id="Rectángulo_1947" data-name="Rectángulo 1947" width="47.995" height="4.543" transform="translate(88.734 86.311)" fill="#cfd1d6"/>
        <rect id="Rectángulo_1948" data-name="Rectángulo 1948" width="47.995" height="4.535" transform="translate(88.734 95.611)" fill="#cfd1d6"/>
        <rect id="Rectángulo_1949" data-name="Rectángulo 1949" width="47.995" height="4.544" transform="translate(88.734 104.903)" fill="#cfd1d6"/>
        <rect id="Rectángulo_1950" data-name="Rectángulo 1950" width="118.904" height="4.539" transform="translate(17.824 123.935)" fill="#cfd1d6"/>
        <rect id="Rectángulo_1951" data-name="Rectángulo 1951" width="118.904" height="4.537" transform="translate(17.824 135.177)" fill="#cfd1d6"/>
      </g>
    </g>
    <g id="Grupo_1714" data-name="Grupo 1714" transform="translate(274.781 130.075)">
      <path id="Trazado_1255" data-name="Trazado 1255" d="M400.723,175.3a13.767,13.767,0,0,0-11.467-6.141H293.583a13.779,13.779,0,0,0-13.779,13.78V291.627a16.762,16.762,0,0,0,15.157,15.5h95.676a13.777,13.777,0,0,0,13.779-13.774V184.667A13.7,13.7,0,0,0,400.723,175.3Z" transform="translate(-279.804 -165.984)" fill="#b6b8bf" style="mix-blend-mode: multiply;isolation: isolate"/>
      <g id="Grupo_1713" data-name="Grupo 1713" transform="translate(5.563)">
        <path id="Rectángulo_1952" data-name="Rectángulo 1952" d="M11.558,0H111.67A11.561,11.561,0,0,1,123.23,11.561v113.12a11.559,11.559,0,0,1-11.559,11.559H11.559A11.559,11.559,0,0,1,0,124.681V11.558A11.558,11.558,0,0,1,11.558,0Z" transform="translate(1.38 1.73)" fill="#c0c2c8" style="mix-blend-mode: multiply;isolation: isolate"/>
        <path id="Rectángulo_1953" data-name="Rectángulo 1953" d="M11.561,0H111.668A11.563,11.563,0,0,1,123.23,11.563V124.68a11.563,11.563,0,0,1-11.562,11.563H11.563A11.563,11.563,0,0,1,0,124.68V11.561A11.561,11.561,0,0,1,11.561,0Z" transform="translate(0 0)" fill="#fff"/>
        <path id="Trazado_1256" data-name="Trazado 1256" d="M407.7,187.161v-6.886a13.779,13.779,0,0,0-13.779-13.78H298.251a13.779,13.779,0,0,0-13.779,13.78v6.886Z" transform="translate(-284.472 -166.495)" fill="#003b69"/>
        <path id="Trazado_1257" data-name="Trazado 1257" d="M367.288,180.344a1.128,1.128,0,0,1-1.127,1.13h-7.508a1.127,1.127,0,0,1-1.125-1.13v-7.507a1.123,1.123,0,0,1,1.125-1.121h7.508a1.124,1.124,0,0,1,1.127,1.121Z" transform="translate(-270.463 -165.494)" fill="#fff"/>
        <path id="Trazado_1258" data-name="Trazado 1258" d="M379.169,180.344a1.129,1.129,0,0,1-1.127,1.13h-7.507a1.127,1.127,0,0,1-1.124-1.13v-7.507a1.123,1.123,0,0,1,1.124-1.121h7.507a1.125,1.125,0,0,1,1.127,1.121Z" transform="translate(-268.184 -165.494)" fill="#fff"/>
        <path id="Trazado_1259" data-name="Trazado 1259" d="M363.8,176.6a4.879,4.879,0,0,1-4.878,4.878H295.776a4.88,4.88,0,0,1-4.881-4.878h0a4.878,4.878,0,0,1,4.881-4.88h63.145a4.876,4.876,0,0,1,4.878,4.88Z" transform="translate(-283.24 -165.494)" fill="#fff"/>
        <g id="Grupo_1712" data-name="Grupo 1712" transform="translate(9.378 33.269)">
          <g id="Grupo_1711" data-name="Grupo 1711">
            <path id="Trazado_1260" data-name="Trazado 1260" d="M351.47,223.975a29.564,29.564,0,1,1-29.564-29.564A29.563,29.563,0,0,1,351.47,223.975Z" transform="translate(-292.341 -194.411)" fill="#cfd1d6"/>
          </g>
        </g>
        <rect id="Rectángulo_1954" data-name="Rectángulo 1954" width="39.696" height="7.509" transform="translate(73.391 35.453)" fill="#9f9fa6"/>
        <rect id="Rectángulo_1955" data-name="Rectángulo 1955" width="39.696" height="3.755" transform="translate(73.391 48.327)" fill="#cfd1d6"/>
        <path id="Trazado_1289" data-name="Trazado 1289" d="M385.749,217.249h-39.7V213.5h39.7Z" transform="translate(-272.663 -157.482)" fill="#cfd1d6"/>
        <rect id="Rectángulo_1956" data-name="Rectángulo 1956" width="39.696" height="3.757" transform="translate(73.391 63.703)" fill="#cfd1d6"/>
        <rect id="Rectángulo_1957" data-name="Rectángulo 1957" width="39.696" height="3.757" transform="translate(73.391 71.389)" fill="#cfd1d6"/>
        <rect id="Rectángulo_1958" data-name="Rectángulo 1958" width="39.696" height="3.753" transform="translate(73.391 79.08)" fill="#cfd1d6"/>
        <rect id="Rectángulo_1959" data-name="Rectángulo 1959" width="39.696" height="3.756" transform="translate(73.391 86.765)" fill="#cfd1d6"/>
        <rect id="Rectángulo_1960" data-name="Rectángulo 1960" width="98.345" height="3.753" transform="translate(14.741 102.506)" fill="#cfd1d6"/>
        <rect id="Rectángulo_1961" data-name="Rectángulo 1961" width="98.345" height="3.755" transform="translate(14.741 111.803)" fill="#cfd1d6"/>
      </g>
    </g>
    <g id="Grupo_1725" data-name="Grupo 1725" transform="translate(215.351 0)">
      <path id="Trazado_1290" data-name="Trazado 1290" d="M329.875,66.184A11.372,11.372,0,0,0,320.4,61.1H241.322a11.385,11.385,0,0,0-11.386,11.384v89.831a13.851,13.851,0,0,0,12.525,12.813h79.075a11.387,11.387,0,0,0,11.387-11.387V73.918A11.339,11.339,0,0,0,329.875,66.184Z" transform="translate(-229.936 -56.629)" fill="#cfd1d6" style="mix-blend-mode: multiply;isolation: isolate"/>
      <g id="Grupo_1724" data-name="Grupo 1724" transform="translate(4.474)">
        <path id="Rectángulo_1962" data-name="Rectángulo 1962" d="M9.556,0H92.292a9.555,9.555,0,0,1,9.555,9.555v93.491a9.556,9.556,0,0,1-9.556,9.556H9.555A9.555,9.555,0,0,1,0,103.046V9.556A9.556,9.556,0,0,1,9.556,0Z" transform="translate(1.141 1.426)" fill="#c0c2c8" style="mix-blend-mode: multiply;isolation: isolate"/>
        <path id="Rectángulo_1963" data-name="Rectángulo 1963" d="M9.554,0h82.74a9.555,9.555,0,0,1,9.555,9.555v93.493A9.552,9.552,0,0,1,92.3,112.6H9.555A9.555,9.555,0,0,1,0,103.045V9.554A9.554,9.554,0,0,1,9.554,0Z" transform="translate(0.001)" fill="#fff"/>
        <path id="Trazado_1291" data-name="Trazado 1291" d="M335.538,74.429v-5.7a11.385,11.385,0,0,0-11.386-11.384H245.077A11.387,11.387,0,0,0,233.69,68.733v5.7Z" transform="translate(-233.69 -57.349)" fill="#003b69"/>
        <path id="Rectángulo_1964" data-name="Rectángulo 1964" d="M.78,0h6.5a.781.781,0,0,1,.781.781v6.5a.781.781,0,0,1-.781.781H.781A.781.781,0,0,1,0,7.285V.78A.78.78,0,0,1,.78,0Z" transform="translate(71.96 5.138)" fill="#fff"/>
        <path id="Rectángulo_1965" data-name="Rectángulo 1965" d="M.78,0H7.285a.78.78,0,0,1,.78.78v6.5a.781.781,0,0,1-.781.781H.781A.781.781,0,0,1,0,7.285V.78A.78.78,0,0,1,.78,0Z" transform="translate(83.662 5.138)" fill="#fff"/>
        <path id="Trazado_1292" data-name="Trazado 1292" d="M299.254,65.694a4.034,4.034,0,0,1-4.033,4.033H243.034A4.032,4.032,0,0,1,239,65.694h0a4.033,4.033,0,0,1,4.033-4.034h52.187a4.035,4.035,0,0,1,4.033,4.034Z" transform="translate(-232.672 -56.522)" fill="#fff"/>
        <g id="Grupo_1723" data-name="Grupo 1723" transform="translate(7.751 27.493)">
          <g id="Grupo_1722" data-name="Grupo 1722">
            <path id="Trazado_1293" data-name="Trazado 1293" d="M289.063,104.853a24.435,24.435,0,1,1-24.436-24.435A24.435,24.435,0,0,1,289.063,104.853Z" transform="translate(-240.194 -80.418)" fill="#cfd1d6"/>
          </g>
        </g>
        <rect id="Rectángulo_1966" data-name="Rectángulo 1966" width="32.808" height="6.207" transform="translate(60.659 29.299)" fill="#9f9fa6"/>
        <rect id="Rectángulo_1967" data-name="Rectángulo 1967" width="32.808" height="3.105" transform="translate(60.659 39.938)" fill="#cfd1d6"/>
        <rect id="Rectángulo_1968" data-name="Rectángulo 1968" width="32.808" height="3.105" transform="translate(60.659 46.293)" fill="#cfd1d6"/>
        <rect id="Rectángulo_1969" data-name="Rectángulo 1969" width="32.808" height="3.103" transform="translate(60.659 52.648)" fill="#cfd1d6"/>
        <rect id="Rectángulo_1970" data-name="Rectángulo 1970" width="32.808" height="3.104" transform="translate(60.659 59.001)" fill="#cfd1d6"/>
        <rect id="Rectángulo_1971" data-name="Rectángulo 1971" width="32.808" height="3.1" transform="translate(60.659 65.357)" fill="#cfd1d6"/>
        <rect id="Rectángulo_1972" data-name="Rectángulo 1972" width="32.808" height="3.102" transform="translate(60.659 71.71)" fill="#cfd1d6"/>
        <rect id="Rectángulo_1973" data-name="Rectángulo 1973" width="81.281" height="3.102" transform="translate(12.186 84.717)" fill="#cfd1d6"/>
        <rect id="Rectángulo_1974" data-name="Rectángulo 1974" width="81.281" height="3.103" transform="translate(12.186 92.402)" fill="#cfd1d6"/>
      </g>
    </g>
  </g>
  <g id="Grupo_1744" data-name="Grupo 1744" transform="translate(257.271 172.711)">
    <g id="Grupo_1732" data-name="Grupo 1732" transform="translate(0 0)">
      <path id="Trazado_1322" data-name="Trazado 1322" d="M194.307,134.968c0,1.853-8.673,3.356-19.37,3.356s-19.37-1.5-19.37-3.356,8.672-3.357,19.37-3.357S194.307,133.113,194.307,134.968Z" transform="translate(-155.568 -96.772)" fill="#c8e3f7"/>
      <g id="Grupo_1731" data-name="Grupo 1731" transform="translate(4.891)">
        <g id="Grupo_1727" data-name="Grupo 1727" transform="translate(0 28.176)">
          <path id="Trazado_1323" data-name="Trazado 1323" d="M167.27,125.874h9.49a47.832,47.832,0,0,0,1.356-6.068s.194-4.5-4.425-4.115c0,0-5.271-.1-6.15,6.029A31.417,31.417,0,0,1,167.27,125.874Z" transform="translate(-167.27 -115.669)" fill="#434693"/>
        </g>
        <g id="Grupo_1728" data-name="Grupo 1728" transform="translate(11.385 20.349)">
          <rect id="Rectángulo_1975" data-name="Rectángulo 1975" width="5.152" height="6.897" fill="#f7ae80"/>
        </g>
        <path id="Trazado_1324" data-name="Trazado 1324" d="M196.1,113.866a6.981,6.981,0,0,0-3.685-2.819l-5.4-2H181.86l-5.4,2a6.986,6.986,0,0,0-3.687,2.819Z" transform="translate(-170.475 -83.638)" fill="#f7ae80"/>
        <path id="Trazado_1325" data-name="Trazado 1325" d="M193.318,122.682l-.016-.557,2.38-4.732a6.94,6.94,0,0,0-4.743-5.684l-4.118-1.525-4.7,1.594-3.137-1.549-3.993,1.481a6.94,6.94,0,0,0-4.744,5.684l1.927,5.289Z" transform="translate(-169.003 -84.3)" fill="#434693"/>
        <g id="Grupo_1729" data-name="Grupo 1729" transform="translate(17.351 28.164)">
          <path id="Trazado_1326" data-name="Trazado 1326" d="M210.138,125.857h10.256a54.376,54.376,0,0,0-3.128-8.27s-2.443-3.786-5.99-.8c0,0-4.361,2.96-1.537,8.474C209.739,125.259,209.885,125.461,210.138,125.857Z" transform="translate(-208.787 -115.639)" fill="#434693"/>
        </g>
        <g id="Grupo_1730" data-name="Grupo 1730" transform="translate(4.301)">
          <path id="Trazado_1327" data-name="Trazado 1327" d="M179.587,64.767a20.477,20.477,0,0,1-.244-3.488c-.011-1.05.195-2.633,1.5-2.766,1.807-.186,2.365,2.938,2.471,4.289a21.752,21.752,0,0,1-.675,5.7c-.13.66-.115,1.976-.857,2.294-.636.273-.528.374-.851-.1C180.15,69.547,179.754,66.1,179.587,64.767Z" transform="translate(-178.598 -54.219)" fill="#764415"/>
          <path id="Trazado_1328" data-name="Trazado 1328" d="M181.778,70.578c.715,2.8,1.975,3.568,1.975,3.568l1.688.331c.972-.125,2.648-.52,2.648-.52,3.858-1.311,5.138-1.232,5.933-3.238.026-.061,2.681-10.424,2.681-10.424.493-5.389-5.146-6.509-6-6.649-.842-.194-6.213-1.686-7.8,3.485A28.1,28.1,0,0,0,181.778,70.578Z" transform="translate(-179.812 -51.189)" fill="#f7ae80"/>
          <path id="Trazado_1329" data-name="Trazado 1329" d="M193.428,93.456a13.38,13.38,0,0,1-6.111,2.189c-3.43.362-4.2-2.165-4.794-4.84.053.614.121,1.241.225,1.883.667,2.61,1.842,3.329,1.842,3.329l1.574.307c.907-.116,2.471-.484,2.471-.484,3.6-1.224,4.792-1.15,5.535-3.02,0-.008.052-.193.131-.5A3.534,3.534,0,0,1,193.428,93.456Z" transform="translate(-180.449 -73.02)" fill="#e7a379"/>
          <path id="Trazado_1330" data-name="Trazado 1330" d="M187.2,48.931c1.6-.214,3.468-.62,5.051-.1,2.109.69,2.1,3.094,3.055,4.734a8.906,8.906,0,0,1,1.567,5.127c-.068,1.473-.642.751-.855,2.259-.237,1.678-.558,1.808-1.355,3.212l-2.895,3.62c.464-1.836.113-2.175.536-3.586a8.884,8.884,0,0,0-.4-5.7c-.667-1.538-1.131-1.505-2.552-1.878a21.127,21.127,0,0,0-5.3-.687c-1.734-.027-3.621-.078-5.028-1.236a5.182,5.182,0,0,1-1.276-5.056,2.584,2.584,0,0,1,3.029-1.306,23.278,23.278,0,0,0,4.166.746A13.671,13.671,0,0,0,187.2,48.931Z" transform="translate(-177.56 -48.251)" fill="#764415"/>
          <path id="Trazado_1331" data-name="Trazado 1331" d="M211.453,82.226s.953-2.078,2.453-.847c0,0,.682.533-.159,1.922,0,0-1.219,2-2.682.892Z" transform="translate(-197.062 -67.307)" fill="#f7ae80"/>
          <path id="Trazado_1332" data-name="Trazado 1332" d="M211.39,72.358a23.16,23.16,0,0,1-.691,5.69l.726.144s.381-2.55,1.693-2.581Z" transform="translate(-196.849 -62.283)" fill="#764415"/>
        </g>
      </g>
    </g>
  </g>
  <g id="Grupo_1745" data-name="Grupo 1745" transform="translate(23.729 122.498)">
    <path id="Trazado_1343" data-name="Trazado 1343" d="M321.642,393.534c0,2.376-11.115,4.3-24.825,4.3s-24.825-1.926-24.825-4.3,11.115-4.3,24.825-4.3S321.642,391.158,321.642,393.534Z" transform="translate(-271.992 -346.036)" fill="#c8e3f7"/>
    <g id="Grupo_1742" data-name="Grupo 1742" transform="translate(7.773)">
      <g id="Grupo_1741" data-name="Grupo 1741">
        <path id="Trazado_1344" data-name="Trazado 1344" d="M292.535,394.378c-1.543-1.921-3.452-3.384-5.691-3.325,0,0-.171,1.045-.341,3.325Z" transform="translate(-286.503 -346.881)" fill="#032335"/>
        <g id="Grupo_1738" data-name="Grupo 1738" transform="translate(13.252 28.562)">
          <rect id="Rectángulo_1979" data-name="Rectángulo 1979" width="6.603" height="8.839" fill="#f7ae80"/>
        </g>
        <path id="Trazado_1345" data-name="Trazado 1345" d="M319.4,380.2a8.952,8.952,0,0,0-4.724-3.615l-6.918-2.563h-6.6l-6.916,2.563a8.954,8.954,0,0,0-4.724,3.615Z" transform="translate(-287.9 -338.971)" fill="#f7ae80"/>
        <path id="Trazado_1346" data-name="Trazado 1346" d="M318.27,386.469l1.31-2.6a8.9,8.9,0,0,0-6.081-7.285l-6.918-2.563-4.38,2.653-2.223-2.653-6.916,2.563a8.9,8.9,0,0,0-6.081,7.285l.949,2.6Z" transform="translate(-286.725 -338.971)" fill="#8abde8"/>
        <g id="Grupo_1739" data-name="Grupo 1739" transform="translate(4.39)">
          <path id="Trazado_1347" data-name="Trazado 1347" d="M300.767,342.058c1.375,3.437,3.1,4.206,3.1,4.206l2.2.138c1.216-.319,3.28-1.1,3.28-1.1,4.683-2.308,6.322-2.419,7-5.1.022-.082,1.671-13.693,1.671-13.693-.269-6.93-7.621-7.417-8.728-7.452-1.1-.106-8.174-1.111-9.329,5.726A36,36,0,0,0,300.767,342.058Z" transform="translate(-296.827 -313.397)" fill="#f7ae80"/>
          <path id="Trazado_1348" data-name="Trazado 1348" d="M300.828,340.324c.934,1.793,2.643,3.876,4.9,3.851a15.1,15.1,0,0,0,5.188-1.387,25.854,25.854,0,0,0,5.229-2.419c.071-.052.138-.111.208-.165l0,0c.022-.082,1.671-13.693,1.671-13.693-.269-6.93-7.621-7.417-8.728-7.452-1.1-.106-8.174-1.111-9.329,5.726a35.915,35.915,0,0,0,.292,15.363A.408.408,0,0,1,300.828,340.324Z" transform="translate(-296.83 -313.397)" fill="#f7ae80"/>
          <path id="Trazado_1349" data-name="Trazado 1349" d="M315.91,361.843a66.924,66.924,0,0,1-6.387,2.882c-3.215,1.118-4.912,1.313-7.5-3.071.006.022.01.043.017.065,1.374,3.437,3.1,4.206,3.1,4.206l2.2.138c1.216-.319,3.28-1.1,3.28-1.1,3.67-1.809,5.466-2.272,6.4-3.679C316.665,361.486,316.292,361.664,315.91,361.843Z" transform="translate(-298.1 -333.057)" fill="#e7a379"/>
          <path id="Trazado_1350" data-name="Trazado 1350" d="M296.8,316.564c-.6,3.358.409,12.247.409,12.247s.28-8.907,2.678-10.815c0,0,2.4-1.13,4.1.284,0,0,8.018-3.1,9.083,5.04l1.033,7.1.122,4.976c5.074-6.18,4.7-14.883,4.7-14.883s.893-5.627-3.138-6.375c0,0,.351-4.7-7.564-5.409a15.821,15.821,0,0,1,1.56,2.526s-1.411-3.373-8.976-2.526a5.58,5.58,0,0,1,2.753,1.912s-1.642.783-6.4-2.049C297.157,308.588,291.874,313.523,296.8,316.564Z" transform="translate(-294.699 -308.588)" fill="#202062"/>
          <path id="Trazado_1351" data-name="Trazado 1351" d="M330,346.043s.867-2.8,2.976-1.485c0,0,.955.564.117,2.47,0,0-1.216,2.742-3.26,1.579Z" transform="translate(-311.013 -325.128)" fill="#f7ae80"/>
          <path id="Trazado_1352" data-name="Trazado 1352" d="M328.993,336.094s.611,4.727.07,7.347l.946.061s.06-3.3,1.722-3.56Z" transform="translate(-310.624 -321.361)" fill="#0e1138"/>
        </g>
        <g id="Grupo_1740" data-name="Grupo 1740" transform="translate(21.976 38.65)">
          <path id="Trazado_1353" data-name="Trazado 1353" d="M339.659,389.592c-.881-2.825-1.538-4.651-1.71-4.977,0,0-1.554-5.371-7.353-3.46,0,0-4.556,2.27-2.56,8.436Z" transform="translate(-327.53 -380.744)" fill="#012b42"/>
        </g>
        <path id="Trazado_1354" data-name="Trazado 1354" d="M297.379,387.217l.268-11.586-4.587,1.7a8.9,8.9,0,0,0-6.081,7.285l.949,2.6Z" transform="translate(-286.725 -339.72)" fill="#012b42"/>
        <path id="Trazado_1355" data-name="Trazado 1355" d="M335.261,386.469l1.31-2.6a8.9,8.9,0,0,0-6.081-7.285l-6.918-2.563v12.451Z" transform="translate(-303.716 -338.971)" fill="#012b42"/>
        <path id="Trazado_1356" data-name="Trazado 1356" d="M311.243,378.861h4.663v2.279l-1.583,1.581h-2.161l-.919-1.929Z" transform="translate(-297.991 -341.22)" fill="#913f6c"/>
        <path id="Trazado_1357" data-name="Trazado 1357" d="M315.394,375.441l4.38-4.07,3.619,2.278-4.783,4.718Z" transform="translate(-299.919 -337.742)" fill="#c2def6"/>
        <path id="Trazado_1358" data-name="Trazado 1358" d="M310.28,375.854l-2.295-3.593-3.6,1.907,2.7,4.346Z" transform="translate(-294.805 -338.155)" fill="#c2def6"/>
      </g>
      <path id="Trazado_1359" data-name="Trazado 1359" d="M314.9,392.065l-.279-5.995h-2.161l-.571,5.995Z" transform="translate(-298.293 -344.568)" fill="#913f6c"/>
    </g>
  </g>
  <g id="Grupo_1746" data-name="Grupo 1746" transform="translate(193.085 34.08)">
    <path id="Trazado_1333" data-name="Trazado 1333" d="M190.94,392.183c0,1.63-6.811,2.951-15.211,2.951s-15.211-1.321-15.211-2.951,6.81-2.95,15.211-2.95S190.94,390.553,190.94,392.183Z" transform="translate(-160.518 -360.768)" fill="#c8e3f7"/>
    <g id="Grupo_1736" data-name="Grupo 1736" transform="translate(3.976)">
      <rect id="Rectángulo_1976" data-name="Rectángulo 1976" width="11.549" height="24.981" transform="translate(8.356 6.434)" fill="#985a14"/>
      <g id="Grupo_1733" data-name="Grupo 1733" transform="translate(0 25.97)">
        <path id="Trazado_1334" data-name="Trazado 1334" d="M177.05,387.888c.458-4.323-2.341-5.445-2.341-5.445-2.588,0-3.169,4.173-3.169,4.173l-.2,1.272Z" transform="translate(-171.339 -382.443)" fill="#f7ae80"/>
      </g>
      <g id="Grupo_1734" data-name="Grupo 1734" transform="translate(8.967 18.961)">
        <rect id="Rectángulo_1977" data-name="Rectángulo 1977" width="4.307" height="5.766" fill="#f7ae80"/>
      </g>
      <path id="Trazado_1335" data-name="Trazado 1335" d="M194.245,378.912a5.792,5.792,0,0,0-2.751-2.357l-4.513-1.672h-4.307l-4.511,1.672a5.837,5.837,0,0,0-3.081,2.357Z" transform="translate(-173.706 -351.691)" fill="#f7ae80"/>
      <rect id="Rectángulo_1978" data-name="Rectángulo 1978" width="12.168" height="5.102" transform="translate(4.381 26.313)" fill="#f7ae80"/>
      <path id="Trazado_1336" data-name="Trazado 1336" d="M195.926,383.789a2.272,2.272,0,0,0,.3-1.88,4.846,4.846,0,0,0-3.082-4.671l-3.442-1.275c.168,6.263-5.378,5.294-5.378,5.294-4.77-.34-1.173-5.257-1.173-5.257l-2.765,1.025-2.114,5.273a8.29,8.29,0,0,0-.583,1.491Z" transform="translate(-175.354 -352.374)" fill="#434693"/>
      <g id="Grupo_1735" data-name="Grupo 1735" transform="translate(15.771 25.206)">
        <path id="Trazado_1337" data-name="Trazado 1337" d="M214.572,386.574h5.3l-.049-.581c.006-6.209-3.539-5.612-3.539-5.612-2.627,1.156-1.94,4.91-1.94,4.91Z" transform="translate(-214.259 -380.366)" fill="#f7ae80"/>
      </g>
      <path id="Trazado_1338" data-name="Trazado 1338" d="M195.932,330.549a3.533,3.533,0,0,1-.792,1.157,8.727,8.727,0,0,1-5.912,2.585c-5.787-2.528-3.911-13.672-3.911-13.672.87-5.332,5.432-5.321,5.432-5.321,3.447-.15,6.591,1.478,7.121,5.109a22.461,22.461,0,0,1-.135,4.275,11.208,11.208,0,0,1-.5,3.016C196.9,328.691,196.347,329.59,195.932,330.549Z" transform="translate(-179.997 -313.994)" fill="#f7ae80"/>
      <path id="Trazado_1339" data-name="Trazado 1339" d="M193.262,361.377c2.241.507,4.539-1.118,6.479-2.242a3.423,3.423,0,0,1-.278.306,8.727,8.727,0,0,1-5.912,2.585,5.377,5.377,0,0,1-1.69-1.176A5.877,5.877,0,0,0,193.262,361.377Z" transform="translate(-184.32 -341.73)" fill="#e7a379"/>
      <path id="Trazado_1340" data-name="Trazado 1340" d="M183.625,324.2a6.148,6.148,0,0,1,1.138-4.571,5.639,5.639,0,0,0,1.571-3.5c.26-1.635,3.707-3.774,1.654-3.482-3.358.478-5.055,4.174-5.138,5.934a9.706,9.706,0,0,0,.678,4.94Z" transform="translate(-178.598 -312.305)" fill="#985a14"/>
      <path id="Trazado_1341" data-name="Trazado 1341" d="M196.353,321.987c4.44,1.4,3.815,3.256,2.954,6.061a9.138,9.138,0,0,0,3.4-4.706,10.765,10.765,0,0,0,.407-5.129c-.5-5.15-5.8-7.926-11.481-5.63-2.1.849-1.655,4.387-.519,6.06C192.24,320.3,193.285,321.023,196.353,321.987Z" transform="translate(-183.246 -311.768)" fill="#985a14"/>
      <path id="Trazado_1342" data-name="Trazado 1342" d="M214.512,342.45s.457-1.9,1.916-1.113c0,0,.658.333.183,1.636,0,0-.692,1.876-2.1,1.189Z" transform="translate(-198.648 -330.352)" fill="#f7ae80"/>
    </g>
  </g>
</svg>
