<svg id="propuesta-1-x2" xmlns="http://www.w3.org/2000/svg" xmlns:xlink="http://www.w3.org/1999/xlink" width="226.896" height="87.139" viewBox="0 0 226.896 87.139">
  <defs>
    <clipPath id="clip-path">
      <rect id="Rectángulo_141" data-name="Rectángulo 141" width="226.896" height="87.139" fill="none"/>
    </clipPath>
  </defs>
  <g id="Grupo_247" data-name="Grupo 247">
    <g id="Grupo_246" data-name="Grupo 246" clip-path="url(#clip-path)">
      <rect id="Rectángulo_2323" data-name="Rectángulo 2323" width="177" height="46" rx="20" transform="translate(39.448 31.139)" fill="#fff"/>
      <path id="Trazado_76" data-name="Trazado 76" d="M200.892,80.069H67.778a23.27,23.27,0,1,1,0-46.54H200.892a23.27,23.27,0,0,1,0,46.54M67.778,38.513a18.286,18.286,0,1,0,0,36.573H200.892a18.286,18.286,0,0,0,0-36.573Z" transform="translate(-3.379 -2.545)" fill="#161615"/>
      <path id="Trazado_77" data-name="Trazado 77" d="M81.943,82.231H56.9L5.768,30.915V5.789H30.81L81.943,57.095Z" transform="translate(-0.438 -0.439)" fill="#fff"/>
      <path id="Trazado_78" data-name="Trazado 78" d="M81.506,81.791H56.466L5.33,30.476V5.35H30.372L81.506,56.655Zm5.3,5.317h.028V54.447L32.578,0H.03V.028H0V32.689l54.258,54.45H86.8Z" transform="translate(0 0)" fill="#161615"/>
      <rect id="Rectángulo_140" data-name="Rectángulo 140" width="5.455" height="21.456" transform="translate(12.194 10.079)" fill="#db0218"/>
      <path id="Trazado_79" data-name="Trazado 79" d="M33.568,42.705a3.252,3.252,0,0,1-3.282-3.219V23.754H24.838v15.27a8.766,8.766,0,0,0,17.493,0V23.754H36.876L36.84,39.172a3.226,3.226,0,0,1-2.9,3.52,3.122,3.122,0,0,1-.371.014" transform="translate(-1.885 -1.803)" fill="#c01c0f"/>
      <path id="Trazado_80" data-name="Trazado 80" d="M61.033,41.138a19.191,19.191,0,0,0-6.245-1.023c-6.952,0-8.761,4.27-8.761,7.227A6.826,6.826,0,0,0,50.889,53.8c3.159,1.315,5.345,2.083,5.345,4s-1.791,2.929-3.815,2.929a14.068,14.068,0,0,1-6.056-1.99v5.118a22.456,22.456,0,0,0,6.207,1.12c2.948,0,9.848-.255,9.848-7.8,0-2.9-1.364-5.035-5.616-6.7-3.39-1.333-4.473-2.521-4.473-3.751,0-1.584,1.908-2.6,3.275-2.6a18.784,18.784,0,0,1,5.429,1.589Z" transform="translate(-3.494 -3.045)" fill="#c01c0f"/>
      <path id="Trazado_81" data-name="Trazado 81" d="M70.011,71.179l2.66-9.589,2.623,9.589Zm5.649-15.2H69.653L61.435,81.308h5.713l1.594-5.629h7.786l1.6,5.629h5.746Z" transform="translate(-4.664 -4.249)" fill="#db0218"/>
      <path id="Trazado_82" data-name="Trazado 82" d="M33.575,42.733a3.249,3.249,0,0,1-3.282-3.216V23.785H24.855v15.27a8.766,8.766,0,0,0,17.493,0V23.785H36.89l-.03,15.423a3.222,3.222,0,0,1-2.894,3.518h0a3.094,3.094,0,0,1-.382.015" transform="translate(-1.887 -1.805)" fill="#db0218"/>
      <path id="Trazado_83" data-name="Trazado 83" d="M61.039,41.171A19.254,19.254,0,0,0,54.8,40.148c-6.954,0-8.76,4.27-8.76,7.227A6.83,6.83,0,0,0,50.9,53.831c3.157,1.312,5.345,2.082,5.345,4s-1.791,2.932-3.816,2.932a14.068,14.068,0,0,1-6.056-1.99v5.118a22.456,22.456,0,0,0,6.207,1.12c2.947,0,9.845-.255,9.845-7.8,0-2.9-1.364-5.035-5.629-6.7-3.388-1.333-4.473-2.518-4.473-3.749,0-1.586,1.908-2.6,3.275-2.6a18.715,18.715,0,0,1,5.432,1.589Z" transform="translate(-3.494 -3.047)" fill="#db0218"/>
    </g>
  </g>
  <path id="Trazado_84" data-name="Trazado 84" d="M98.164,49.253h10.175v3.079h-6.5v3.261h5.536v3.079h-5.536v3.741h6.752v3.079H98.164Zm13.654,0h3.763l4.237,8.077,1.606,3.568h.1c-.174-1.718-.469-3.993-.469-5.908V49.253h3.5V65.492H120.79l-4.237-8.1-1.606-3.547h-.1c.173,1.791.469,3.966.469,5.88v5.764h-3.5Zm21.553,0h3.671v13.16h6.41v3.079H133.372Zm12.86-2.548,4.255-3.482,1.944,2.363-4.577,2.955Zm.047,2.548h3.671V65.492h-3.671Zm7.5,0h3.762l4.237,8.077,1.606,3.568h.1c-.173-1.718-.469-3.993-.469-5.908V49.253h3.5V65.492H162.75l-4.237-8.1-1.606-3.547h-.1c.173,1.791.469,3.966.469,5.88v5.764h-3.5Zm16.57,0h10.174v3.079h-6.5v3.261h5.537v3.079h-5.537v3.741h6.753v3.079H170.348Zm16.676,0h4.392l5.1,16.239h-3.885l-1-3.868h-4.951l-1,3.868h-3.754Zm3.871,9.518-.388-1.5c-.452-1.624-.885-3.544-1.319-5.238h-.1c-.393,1.715-.826,3.614-1.278,5.238l-.39,1.5Z" transform="translate(-7.452 -3.281)" fill="#161615"/>
  <g id="Grupo_249" data-name="Grupo 249">
    <g id="Grupo_248" data-name="Grupo 248" clip-path="url(#clip-path)">
      <path id="Trazado_85" data-name="Trazado 85" d="M215.142,67.708a10.1,10.1,0,1,1,9.667-7.166,10.065,10.065,0,0,1-9.667,7.166m-.006-18.273a8.2,8.2,0,1,0,2.383.356,8.218,8.218,0,0,0-2.383-.356" transform="translate(-15.565 -3.606)" fill="#db0218"/>
      <path id="Trazado_86" data-name="Trazado 86" d="M215.462,64.3a6.406,6.406,0,0,1-1.86-.278,6.338,6.338,0,1,1,1.86.278m-.006-10.838a4.455,4.455,0,1,0,1.291.191,4.463,4.463,0,0,0-1.291-.191m5.182,6.028h0Z" transform="translate(-15.871 -3.912)" fill="#db0218"/>
      <path id="Trazado_87" data-name="Trazado 87" d="M218.418,59.022a2.791,2.791,0,1,1-1.861-3.48,2.79,2.79,0,0,1,1.861,3.48" transform="translate(-16.165 -4.207)" fill="#db0218"/>
      <rect id="Rectángulo_142" data-name="Rectángulo 142" width="12.115" height="16.068" transform="translate(206.351 68.935) rotate(-28.115)" fill="#fff"/>
      <path id="Trazado_88" data-name="Trazado 88" d="M222.988,75.758,214.75,60.341c-1.744-3.266,2.134-4.895,3.694-1.975,1.423,2.662,7.114,13.314,7.114,13.314" transform="translate(-16.268 -4.315)" fill="#fff"/>
      <path id="Trazado_89" data-name="Trazado 89" d="M222.469,75.967,214.231,60.55c-1.026-1.922-.33-3.418.751-4a2.9,2.9,0,0,1,3.892,1.514l7.114,13.314-.95.507-7.114-13.314a1.833,1.833,0,0,0-2.435-1.072c-.6.319-1.037,1.175-.309,2.539l8.237,15.418Z" transform="translate(-16.224 -4.271)" fill="#161615"/>
      <path id="Trazado_90" data-name="Trazado 90" d="M226.2,72.152l-2.983-5.583c-1.745-3.265,2.133-4.893,3.693-1.973l2.984,5.582" transform="translate(-16.911 -4.788)" fill="#fff"/>
      <path id="Trazado_91" data-name="Trazado 91" d="M226.156,72.646a.539.539,0,0,1-.475-.285L222.7,66.779a3.037,3.037,0,0,1-.136-3.168,2.422,2.422,0,0,1,2.153-1.118,3.133,3.133,0,0,1,2.625,1.8l2.983,5.583a.538.538,0,1,1-.949.507L226.391,64.8a2.089,2.089,0,0,0-1.711-1.236,1.343,1.343,0,0,0-1.2.611,2.093,2.093,0,0,0,.171,2.091l2.983,5.583a.537.537,0,0,1-.221.728.531.531,0,0,1-.253.064" transform="translate(-16.866 -4.743)" fill="#161615"/>
      <path id="Trazado_92" data-name="Trazado 92" d="M231.218,87.964c-2.278,1.106-5.26-1.165-8.411-4.892-2.016-2.385-6.823-4.543-6.823-4.543-2.622-1.5-.954-5.35,1.741-4.491l5.679,2.09" transform="translate(-16.295 -5.611)" fill="#fff"/>
      <path id="Trazado_93" data-name="Trazado 93" d="M229.944,88.74c-2.052,0-4.553-1.772-7.591-5.365-1.914-2.263-6.587-4.378-6.633-4.4l-.047-.024a2.987,2.987,0,0,1-1.321-3.877,2.8,2.8,0,0,1,3.493-1.595l5.7,2.1a.538.538,0,1,1-.371,1.009L217.5,74.5a1.711,1.711,0,0,0-2.159,1.011,1.912,1.912,0,0,0,.849,2.5c.426.192,4.973,2.289,6.989,4.674,3.391,4.011,6,5.61,7.765,4.755a.538.538,0,1,1,.469.968,3.315,3.315,0,0,1-1.466.336" transform="translate(-16.251 -5.566)" fill="#161615"/>
      <path id="Trazado_94" data-name="Trazado 94" d="M230.248,70.113l-2.364-4.424c-1.744-3.264,2.134-4.893,3.694-1.974l2.364,4.424" transform="translate(-17.265 -4.721)" fill="#fff"/>
      <path id="Trazado_95" data-name="Trazado 95" d="M230.2,70.606a.539.539,0,0,1-.475-.285L227.365,65.9a3.033,3.033,0,0,1-.135-3.167,2.408,2.408,0,0,1,2.153-1.117,3.126,3.126,0,0,1,2.624,1.8l2.364,4.424a.538.538,0,0,1-.949.507l-2.364-4.424a2.087,2.087,0,0,0-1.711-1.235,1.341,1.341,0,0,0-1.205.61,2.1,2.1,0,0,0,.171,2.091l2.364,4.424a.539.539,0,0,1-.221.728.533.533,0,0,1-.253.064" transform="translate(-17.221 -4.677)" fill="#161615"/>
      <path id="Trazado_96" data-name="Trazado 96" d="M234.3,68.072l-1.744-3.264c-1.745-3.264,2.133-4.894,3.694-1.973,0,0,4.728,8.846,7,13.1s-1.467,6.14-1.467,6.14" transform="translate(-17.619 -4.654)" fill="#fff"/>
      <path id="Trazado_97" data-name="Trazado 97" d="M241.732,82.566a.538.538,0,0,1-.243-1.018,3.91,3.91,0,0,0,1.759-2.1,4.273,4.273,0,0,0-.524-3.309l-7-13.1a2.086,2.086,0,0,0-1.711-1.236,1.327,1.327,0,0,0-1.2.61,2.093,2.093,0,0,0,.172,2.091l1.744,3.264a.538.538,0,0,1-.95.507l-1.744-3.264a3.036,3.036,0,0,1-.136-3.167,2.408,2.408,0,0,1,2.153-1.117,3.127,3.127,0,0,1,2.625,1.8l7,13.1a5.286,5.286,0,0,1,.6,4.152,4.956,4.956,0,0,1-2.3,2.721.53.53,0,0,1-.242.058" transform="translate(-17.575 -4.61)" fill="#161615"/>
      <path id="Trazado_98" data-name="Trazado 98" d="M241.812,83.778l.62,1.161a1.252,1.252,0,0,1-.561,1.844l-6.783,3.623a1.265,1.265,0,0,1-1.868-.492l-.643-1.2" transform="translate(-17.655 -6.359)" fill="#fff"/>
      <path id="Trazado_99" data-name="Trazado 99" d="M234.277,91.12a1.659,1.659,0,0,1-.49-.073,1.9,1.9,0,0,1-1.08-.924l-.642-1.2.949-.508.643,1.2a.831.831,0,0,0,.444.4.924.924,0,0,0,.694-.13l1.614-.862,5.169-2.761a.722.722,0,0,0,.339-1.117l-.619-1.16a.538.538,0,0,1,.949-.507l.619,1.161a1.782,1.782,0,0,1-.781,2.573l-5.169,2.762-1.613.862a2.191,2.191,0,0,1-1.027.283" transform="translate(-17.616 -6.315)" fill="#161615"/>
    </g>
  </g>
</svg>
